<svg width="121" height="213" viewBox="0 0 121 213" fill="none" xmlns="http://www.w3.org/2000/svg">
<path d="M6 34C6 29.5817 9.58172 26 14 26H71C98.6142 26 121 48.3858 121 76V205C121 209.418 117.418 213 113 213H14C9.58172 213 6 209.418 6 205V34Z" fill="url(#paint0_linear_3870_4500)"/>
<ellipse cx="34.4997" cy="32.4999" rx="27.5" ry="24.5" transform="rotate(-18.4476 34.4997 32.4999)" fill="white" fill-opacity="0.17"/>
<g clip-path="url(#clip0_3870_4500)">
<path d="M34.157 25.8486C37.5041 24.0705 38.776 19.9156 36.9978 16.5685C35.2197 13.2214 31.0648 11.9495 27.7177 13.7276C24.3706 15.5058 23.0987 19.6606 24.8769 23.0078C26.655 26.3549 30.8099 27.6268 34.157 25.8486Z" fill="#FE646F"/>
<path d="M31.9861 51.0205C35.3332 49.2423 36.6051 45.0875 34.827 41.7404C33.0488 38.3932 28.8939 37.1213 25.5468 38.8995C22.1997 40.6777 20.9278 44.8325 22.706 48.1796C24.4841 51.5268 28.639 52.7986 31.9861 51.0205Z" fill="#FD4755"/>
<path d="M51.7193 28.3244C52.3483 29.5083 51.3101 31.2963 51.5983 32.5433C51.8965 33.8334 53.6028 34.9896 53.556 36.2828C53.5085 37.5946 51.7176 38.6268 51.3359 39.8737C50.9543 41.1205 51.8604 42.9784 51.1654 44.0919C50.4804 45.1897 48.4192 45.1926 47.4499 46.0947C46.5131 46.9667 46.3724 49.0295 45.1885 49.6584C44.0047 50.2873 42.2166 49.2492 40.9697 49.5374C39.6795 49.8356 38.5234 51.5419 37.2302 51.495C35.9184 51.4476 34.8862 49.6566 33.6393 49.275C32.3924 48.8933 30.5346 49.7995 29.421 49.1045C28.3233 48.4194 28.3204 46.3583 27.4183 45.389C26.5464 44.4522 24.4836 44.3115 23.8547 43.1276C23.2257 41.9438 24.2639 40.1557 23.9757 38.9088C23.6775 37.6186 21.9712 36.4625 22.018 35.1693C22.0655 33.8575 23.8564 32.8253 24.2381 31.5784C24.6198 30.3315 23.7136 28.4737 24.4086 27.3601C25.0936 26.2624 27.1547 26.2595 28.1241 25.3574C29.0609 24.4855 29.2016 22.4227 30.3854 21.7938C31.5693 21.1648 33.3574 22.203 34.6043 21.9148C35.8944 21.6166 37.0506 19.9103 38.3438 19.9571C39.6556 20.0046 40.6878 21.7955 41.9347 22.1772C43.1816 22.5589 45.0394 21.6527 46.1529 22.3477C47.2507 23.0327 47.2536 25.0938 48.1557 26.0632C49.0276 26.9999 51.0904 27.1406 51.7193 28.3244Z" fill="#97DA7B"/>
<path d="M44.6857 24.154C44.3022 23.5623 44.2617 22.8152 44.5672 22.1798C44.5811 22.1508 44.5948 22.1217 44.6083 22.0926C43.696 22.1606 42.7006 22.4115 41.9352 22.1772C40.6883 21.7955 39.6561 20.0047 38.3443 19.9572C37.0511 19.9104 35.8949 21.6167 34.6048 21.9149C33.3579 22.2031 31.5699 21.165 30.386 21.7939C29.2021 22.4228 29.0614 24.4856 28.1246 25.3575C27.1553 26.2597 25.0942 26.2626 24.4091 27.3603C23.7142 28.4738 24.6204 30.3317 24.2386 31.5785C23.8569 32.8254 22.066 33.8576 22.0186 35.1694C21.9718 36.4626 23.6781 37.6188 23.9762 38.9089C24.0953 39.4239 23.9881 40.0309 23.8655 40.6497L25.4131 44.2937C26.1553 44.6181 26.9553 44.8911 27.4188 45.3891C28.321 46.3584 28.3239 48.4195 29.4216 49.1046C30.5351 49.7996 32.393 48.8934 33.6398 49.2751C34.8868 49.6568 35.919 51.4477 37.2307 51.4952C38.5239 51.542 39.6801 49.8357 40.9702 49.5374C42.2172 49.2494 44.0052 50.2875 45.1891 49.6586C46.373 49.0297 46.5137 46.9669 47.4505 46.095C48.4198 45.1928 50.4809 45.1899 51.166 44.0922C51.8609 42.9787 50.9548 41.1209 51.3365 39.874C51.6154 38.9627 52.6469 38.1662 53.2006 37.2914L44.6857 24.154Z" fill="#80D261"/>
<path d="M42.3596 48.7834C42.1648 49.4198 41.491 49.7778 40.8546 49.5829L19.537 43.0572C18.9006 42.8624 18.5426 42.1886 18.7375 41.5522L25.2633 20.2346C25.4581 19.5982 26.1319 19.2402 26.7683 19.4351L48.0859 25.9609C48.7223 26.1557 49.0803 26.8295 48.8854 27.4659L42.3596 48.7834Z" fill="#FEDF30"/>
<path d="M45.3046 25.1098L26.7684 19.4354C26.132 19.2407 25.4581 19.5987 25.2633 20.235L20.7186 35.0813C21.2814 35.2546 21.7475 35.6637 21.9818 36.2153L25.687 44.9401L40.8547 49.5833C41.4911 49.7781 42.1649 49.4202 42.3597 48.7838L48.2267 29.6182L45.3046 25.1098Z" fill="#FED402"/>
<path d="M42.2816 15.8793C40.6651 12.8364 36.888 11.6802 33.8451 13.2967L16.2146 22.6629C13.1718 24.2794 12.0155 28.0565 13.632 31.0994C14.6 32.9215 16.3427 34.0671 18.2386 34.3459C18.9361 34.4485 19.5326 34.9003 19.8082 35.5492L27.656 54.0289C28.5769 56.1973 31.1575 57.1114 33.2379 56.0062L51.9451 46.0679C54.0256 44.9627 54.7127 42.3127 53.4314 40.3358L42.5116 23.488C42.1281 22.8964 42.0876 22.1493 42.3931 21.5138C43.2233 19.7868 43.2496 17.7014 42.2816 15.8793Z" fill="#997AFF"/>
<path d="M32.0694 53.8025C31.5553 54.0757 31.0833 53.9764 30.8478 53.893C30.6122 53.8096 30.183 53.5895 29.9554 53.0536L22.1075 34.5738C21.4979 33.1386 20.1555 32.1053 18.6042 31.8771C17.4109 31.7017 16.4028 30.9915 15.8382 29.9288C14.8699 28.106 15.5649 25.8353 17.3878 24.8669L35.0183 15.5007C36.8411 14.5323 39.1118 15.2275 40.0802 17.0502C40.6447 18.1129 40.6689 19.3459 40.1463 20.4328C39.467 21.8461 39.5718 23.5369 40.4198 24.8453L51.3397 41.6933C51.6563 42.1819 51.5984 42.6606 51.5357 42.9026C51.4729 43.1445 51.291 43.5911 50.7768 43.8642L32.0694 53.8025Z" fill="#5E34E8"/>
<path d="M40.0805 17.0506C39.1121 15.2279 36.8414 14.5327 35.0186 15.5011L34.9092 15.5592C35.6018 15.8784 36.201 16.4097 36.5964 17.1254C37.1903 18.2007 37.2247 19.458 36.6929 20.5642C36.0136 21.9775 36.1184 23.6682 36.9664 24.9767L46.4059 39.5405C47.6872 41.5174 47 44.1674 44.9196 45.2726L30.0201 53.188C30.2573 53.6275 30.6332 53.8173 30.8481 53.8935C31.0837 53.9769 31.5556 54.0761 32.0698 53.803L50.7771 43.8647C51.2913 43.5915 51.4732 43.1449 51.536 42.903C51.5988 42.6611 51.6566 42.1823 51.34 41.6937L40.4201 24.8457C39.5721 23.5373 39.4673 21.8465 40.1466 20.4332C40.6692 19.3462 40.645 18.1133 40.0805 17.0506Z" fill="#FEE97D"/>
<path d="M26.4778 31.3411C27.0863 31.0178 27.3176 30.2624 26.9943 29.6538C26.671 29.0452 25.9156 28.814 25.307 29.1373C24.6984 29.4606 24.4672 30.216 24.7905 30.8246C25.1138 31.4331 25.8692 31.6644 26.4778 31.3411Z" fill="#FEE97D"/>
<path d="M40.5627 36.5755C41.1713 36.2522 41.4025 35.4967 41.0792 34.8882C40.7559 34.2796 40.0005 34.0483 39.3919 34.3716C38.7834 34.6949 38.5521 35.4504 38.8754 36.0589C39.1987 36.6675 39.9542 36.8988 40.5627 36.5755Z" fill="#FEE97D"/>
<path d="M31.8085 45.4422C32.0938 45.2907 32.2022 44.9366 32.0506 44.6513C31.8991 44.366 31.5449 44.2576 31.2597 44.4092C30.9744 44.5607 30.866 44.9148 31.0176 45.2001C31.1691 45.4854 31.5232 45.5938 31.8085 45.4422Z" fill="#FEE97D"/>
<path d="M39.0634 45.7782C39.3486 45.6266 39.457 45.2725 39.3055 44.9872C39.1539 44.702 38.7998 44.5936 38.5146 44.7451C38.2293 44.8967 38.1209 45.2508 38.2724 45.5361C38.424 45.8213 38.7781 45.9297 39.0634 45.7782Z" fill="#FEE97D"/>
<path d="M29.1073 24.2723C29.3926 24.1208 29.501 23.7667 29.3494 23.4814C29.1979 23.1961 28.8438 23.0877 28.5585 23.2393C28.2732 23.3908 28.1648 23.7449 28.3164 24.0302C28.4679 24.3155 28.822 24.4239 29.1073 24.2723Z" fill="#FEE97D"/>
<path d="M36.6581 26.5926C36.9434 26.4411 37.0518 26.087 36.9002 25.8017C36.7487 25.5164 36.3946 25.408 36.1093 25.5596C35.824 25.7111 35.7156 26.0652 35.8672 26.3505C36.0187 26.6358 36.3728 26.7442 36.6581 26.5926Z" fill="#FEE97D"/>
<path d="M29.6063 34.5809C29.8916 34.4294 30 34.0752 29.8485 33.79C29.6969 33.5047 29.3428 33.3963 29.0575 33.5479C28.7723 33.6994 28.6639 34.0535 28.8154 34.3388C28.967 34.6241 29.3211 34.7325 29.6063 34.5809Z" fill="#FEE97D"/>
</g>
<defs>
<linearGradient id="paint0_linear_3870_4500" x1="63.5" y1="26" x2="63.5" y2="213" gradientUnits="userSpaceOnUse">
<stop stop-color="#997AFF"/>
<stop offset="1" stop-color="#997AFF" stop-opacity="0"/>
</linearGradient>
<clipPath id="clip0_3870_4500">
<rect width="39.928" height="39.928" fill="white" transform="translate(7 24.7324) rotate(-27.9795)"/>
</clipPath>
</defs>
</svg>
