<svg width="118" height="217" viewBox="0 0 118 217" fill="none" xmlns="http://www.w3.org/2000/svg">
<path d="M3 38C3 33.5817 6.58172 30 11 30H68C95.6142 30 118 52.3858 118 80V209C118 213.418 114.418 217 110 217H11C6.58172 217 3 213.418 3 209V38Z" fill="url(#paint0_linear_3873_4508)"/>
<ellipse cx="33.4995" cy="33.5001" rx="27.5" ry="24.5" transform="rotate(-14.0414 33.4995 33.5001)" fill="#7AFF99" fill-opacity="0.33"/>
<g clip-path="url(#clip0_3873_4508)">
<path d="M35.8083 23.6133C35.6595 23.4574 35.4696 23.3455 35.2616 23.2909L26.1441 20.8982C25.7287 20.789 25.289 20.9009 24.98 21.1935C24.671 21.4857 24.5371 21.9187 24.6256 22.3367L26.5707 31.5238C26.6152 31.7332 26.7175 31.9278 26.8669 32.0834C27.307 32.5439 28.0355 32.5655 28.4942 32.1313L35.7749 25.2333C36.2339 24.7998 36.2487 24.0743 35.8083 23.6133Z" fill="#FCD770"/>
<path d="M28.8462 31.799L34.0794 26.8408L27.2929 25.6299L28.8462 31.799Z" fill="#FFC729"/>
<path d="M26.8873 27.9503L30.7968 22.1205L26.1446 20.8993C25.7292 20.7901 25.2896 20.902 24.9805 21.1946C24.6716 21.4868 24.5376 21.9198 24.6261 22.3378L25.9851 28.7557C26.3464 28.5662 26.6583 28.292 26.8873 27.9503Z" fill="#FFC729"/>
<path d="M25.5432 22.3651C25.354 22.2652 25.1403 22.2206 24.9264 22.2361L15.5866 22.9255C15.1609 22.9572 14.7823 23.2064 14.5839 23.5863C14.3853 23.9659 14.3953 24.4214 14.6113 24.7907L19.3428 32.9106C19.4509 33.0963 19.6088 33.2474 19.7986 33.3477C20.3586 33.6433 21.0512 33.4263 21.3456 32.8636L26.0237 23.919C26.3178 23.3565 26.1027 22.6601 25.5432 22.3651Z" fill="#FCD770"/>
<path d="M27.6903 24.6664C27.2536 24.6444 26.8119 24.7275 26.4145 24.9061C26.137 25.0308 25.8832 25.1995 25.6611 25.4073L25.3399 25.7077L26.5718 31.5266C26.6163 31.7361 26.7186 31.9307 26.868 32.0863C27.3081 32.5468 28.0366 32.5683 28.4953 32.1342L31.1039 29.663L30.4766 27.1718C30.4347 27.0028 30.377 26.8379 30.3056 26.6791L30.1731 26.3845C29.7218 25.3803 28.771 24.722 27.6903 24.6664Z" fill="#FFC729"/>
<path d="M25.544 22.3663C25.3545 22.2659 25.1411 22.2218 24.9272 22.2374L20.2952 22.5795L22.5246 27.5429C22.721 27.9799 23.0336 28.3518 23.4298 28.6185C23.464 28.6414 23.5003 28.6592 23.5347 28.6801L26.0233 23.9208C26.3186 23.3578 26.1035 22.6614 25.544 22.3663Z" fill="#FFC729"/>
<path d="M31.0544 17.1983C30.8764 17.0782 30.6683 17.0106 30.454 17.0026L21.0774 16.6663C20.6508 16.6505 20.2463 16.8576 20.0082 17.2122C19.7706 17.5671 19.7319 18.02 19.9077 18.411L23.7603 26.9857C23.8485 27.1819 23.9895 27.3487 24.1675 27.4688C24.694 27.8236 25.4066 27.6841 25.7602 27.1573L31.3688 18.7935C31.7215 18.2678 31.5805 17.5533 31.0544 17.1983Z" fill="#FCD770"/>
<path d="M23.9232 47.1829L17.9905 42.2456L17.4219 40.9805L42.1369 29.8718L45.5489 37.4628L23.9232 47.1829Z" fill="#186B2B"/>
<path d="M52.9657 34.1301L46.787 36.9073C44.0572 38.1343 40.8255 36.8631 39.5693 34.0684L55.6341 26.8477C56.8903 29.6425 55.6955 32.9032 52.9657 34.1301Z" fill="#186B2B"/>
<path d="M23.9238 47.1836L45.5495 37.4635L46.6868 39.9938L25.0611 49.7139L23.9238 47.1836Z" fill="#CF9E76"/>
<path d="M31.0169 34.8708L29.158 27.4883C29.1357 27.4007 29.1066 27.3158 29.0696 27.2336L28.9372 26.939C28.7037 26.4194 28.2038 26.0738 27.6467 26.0454C27.2558 26.0254 26.8761 26.1641 26.5909 26.4301L22.3284 30.4118L27.9275 36.2594L31.0169 34.8708Z" fill="#FCD770"/>
<path d="M29.9231 34.0921C29.7289 33.66 29.4214 33.2896 29.0291 33.0188L23.5608 29.2615L22.3276 30.4124L27.9267 36.26L30.1382 35.266C30.1554 34.8751 30.0952 34.4748 29.9231 34.0921Z" fill="#FFC729"/>
<path d="M44.9805 36.1992L53.6307 32.3112L55.3367 36.1067L46.6864 39.9947L44.9805 36.1992Z" fill="#186B2B"/>
<path d="M35.7751 25.2357C36.2338 24.8016 36.2483 24.0755 35.8082 23.615C35.6594 23.4591 35.4695 23.3473 35.2615 23.2927L32.3664 22.5326L31.6684 28.0603L32.0045 28.8081L35.7751 25.2357Z" fill="#FFC729"/>
<path d="M41.7174 23.9774L35.6767 21.1252C35.3212 20.9571 34.9149 20.9519 34.5616 21.1107C34.1389 21.3007 33.8459 21.7 33.787 22.1684L33.0671 27.8655L32.2524 34.3148L47.6993 27.3718L41.7174 23.9774Z" fill="#FCD770"/>
<path d="M21.2727 27.6873C20.5216 27.1717 19.5859 27.0829 18.7692 27.45C17.9752 27.8069 17.4326 28.5345 17.2994 29.4049L19.3439 32.9127C19.452 33.0984 19.6099 33.2495 19.7996 33.3498C20.3598 33.6457 21.0523 33.4284 21.3467 32.8657L23.319 29.0944L21.2727 27.6873Z" fill="#FFC729"/>
<path d="M17.5662 39.6467C17.8286 40.2304 18.5035 40.4959 19.0737 40.2396L28.1307 36.1688C28.7009 35.9125 28.9504 35.2315 28.688 34.6478C28.5993 34.4504 28.4585 34.2808 28.2813 34.1593L20.5233 28.828C20.1702 28.5853 19.7216 28.5426 19.3372 28.7154C18.9529 28.8882 18.687 29.2519 18.6347 29.6768L17.4709 39.0182C17.4442 39.2315 17.4775 39.4493 17.5662 39.6467Z" fill="#FCD770"/>
<path d="M38.0303 30.9814C38.2897 30.2756 38.2602 29.5047 37.9479 28.81C37.5564 27.939 36.7701 27.3215 35.8465 27.1571L33.2161 26.6879L32.2525 34.3149L37.7072 31.8632L38.0303 30.9814Z" fill="#FFC729"/>
<path d="M35.9593 32.6488L36.7541 30.4797C36.8858 30.1202 36.8707 29.7193 36.7117 29.3656C36.5116 28.9205 36.107 28.6019 35.6337 28.5173L29.1244 27.3567L31.0163 34.8706L35.9593 32.6488Z" fill="#FCD770"/>
<path d="M46.2029 26.5241L27.9756 34.7168L28.5442 35.982L47.6984 27.3727L46.2029 26.5241Z" fill="#FFC729"/>
<path d="M28.687 34.6468C28.6552 34.576 28.6098 34.5144 28.5651 34.4513L17.5 39.4248C17.5176 39.5 17.5335 39.575 17.5653 39.6457C17.8276 40.2295 18.5025 40.4949 19.0727 40.2386L28.1297 36.1678C28.6999 35.9115 28.9494 35.2306 28.687 34.6468Z" fill="#FFC729"/>
<path d="M31.0173 34.8706L32.2735 34.3059L30.5885 27.6176L29.1254 27.3567L31.0173 34.8706Z" fill="#FFC729"/>
<path d="M23.9238 47.1836L45.5495 37.4635L46.1181 38.7287L24.4925 48.4488L23.9238 47.1836Z" fill="#B27946"/>
<path d="M45.5488 37.4648L54.1991 33.5768L54.7677 34.842L46.1175 38.73L45.5488 37.4648Z" fill="#186B2B"/>
<path d="M46.3645 31.0148L42.6573 32.6811C41.6333 33.1414 40.4218 32.6649 39.9506 31.6165C39.4796 30.5685 39.9273 29.3458 40.9513 28.8856L50.8373 24.4421C51.8613 23.9819 53.0728 24.4587 53.5439 25.5067C54.0151 26.5551 53.5672 27.7774 52.5433 28.2376L46.3645 31.0148Z" fill="#FF826E"/>
<path d="M40.9507 28.8845L40.7083 28.3403C40.178 27.1492 40.4495 25.7604 41.3827 24.8884C42.3191 24.0138 42.5886 22.6173 42.0533 21.4233C41.9137 21.1125 41.8147 20.8923 41.8147 20.8923L45.0552 20.7832C47.517 20.7003 49.8063 22.1485 50.8367 24.441L40.9507 28.8845Z" fill="#FF826E"/>
<path d="M40.4884 27.5717C40.5304 27.832 40.5982 28.0904 40.7091 28.3402L40.9515 28.8843L50.8375 24.4408C50.6424 24.0069 50.3897 23.6148 50.1125 23.2459L40.4884 27.5717Z" fill="#FC6E51"/>
<path d="M53.7134 26.1897L40.3477 32.1973C40.9336 32.8183 41.8504 33.0426 42.6562 32.6804L52.5422 28.2369C53.348 27.8747 53.7889 27.0402 53.7134 26.1897Z" fill="#FC6E51"/>
<path d="M54.387 26.6474C54.4317 26.178 54.3701 25.6907 54.162 25.2277C53.6291 24.0423 52.3811 23.4133 51.1823 23.6235C49.9341 21.3765 47.5779 20.0063 45.0215 20.0923L40.7776 20.2355L41.4355 21.6993C41.6482 22.1725 41.6949 22.6847 41.5951 23.1628L35.9542 20.4988C35.4199 20.2477 34.8082 20.2398 34.2769 20.4786C33.6415 20.7642 33.2095 21.353 33.1155 22.0539L30.4874 21.3439L31.9322 19.1897C32.2067 18.7797 32.3036 18.2861 32.2052 17.7994C32.1077 17.3171 31.8299 16.8999 31.4219 16.6255C31.1372 16.4334 30.8067 16.3258 30.4647 16.3136L21.0881 15.9765C20.4261 15.9525 19.8109 16.2662 19.4421 16.8173C19.0701 17.374 19.0121 18.0728 19.2888 18.6884L20.6607 21.7423L15.369 22.238C15.1707 22.2581 14.9795 22.3087 14.8012 22.3889C13.8743 22.8055 13.467 23.9171 13.8935 24.866L13.9507 24.9933C13.9733 25.0436 13.9982 25.0941 14.0278 25.1461L17.6965 31.6891L16.7956 38.9189C16.7533 39.2606 16.806 39.6078 16.9479 39.9235C17.0141 40.0708 17.102 40.2002 17.1981 40.3211L16.5208 40.6256L17.441 42.6728L23.3736 47.6101L24.7281 50.6236L56.2397 36.46L54.9532 33.5976C56.7575 31.8447 57.3625 29.0436 56.2507 26.5701L55.9664 25.9375L54.387 26.6474ZM42.8261 21.5495L45.09 21.4735C47.0561 21.4062 48.8691 22.4262 49.8888 24.1069L46.8459 25.4746L47.4146 26.7397L51.1218 25.0734C51.8034 24.7671 52.6126 25.0854 52.9262 25.7832C53.2399 26.4809 52.9407 27.2974 52.2591 27.6038L42.3731 32.0472C41.6916 32.3536 40.8823 32.0353 40.5687 31.3375C40.2551 30.6397 40.5543 29.8232 41.2358 29.5169L44.9431 27.8506L44.3744 26.5854L41.2944 27.9698C40.9387 27.0712 41.1517 26.0517 41.8483 25.4003C42.8956 24.4224 43.2643 22.919 42.8261 21.5495ZM35.3981 21.7508L40.9307 24.3633C40.9267 24.3673 40.9231 24.373 40.9188 24.3764C39.7714 25.4472 39.4387 27.1509 40.091 28.6158L40.0918 28.6176C39.5236 29.0784 39.1778 29.7502 39.1085 30.473L37.1671 31.3457L37.3925 30.7305C37.5874 30.1959 37.5659 29.6122 37.3301 29.0878C37.0341 28.4292 36.44 27.9619 35.741 27.8372L33.8022 27.4916L34.462 22.2685C34.5155 21.8405 35.0097 21.5668 35.3981 21.7508ZM28.655 33.5877L23.6342 30.1378L27.0559 26.9421C27.2097 26.7987 27.4127 26.7242 27.6238 26.7348C27.926 26.7511 28.1923 26.9355 28.3187 27.2166L28.4511 27.5113C28.4707 27.5548 28.4871 27.6009 28.4988 27.6487L30.216 34.47L29.4367 34.8202C29.4107 34.6678 29.3716 34.5165 29.3054 34.3691C29.1635 34.0534 28.9388 33.7835 28.655 33.5877ZM30.0403 28.2197L35.5275 29.1985C35.7771 29.243 35.9887 29.4096 36.0938 29.6435C36.1781 29.831 36.1859 30.0387 36.1161 30.229L35.4191 32.1313L31.4723 33.9053L30.0403 28.2197ZM32.9396 23.4302L32.4565 27.2521L29.5902 26.7408L29.5544 26.6612C29.2283 25.9356 28.5583 25.4526 27.7873 25.3703L29.679 22.55L32.9396 23.4302ZM20.5245 18.133C20.4478 17.9622 20.4656 17.7656 20.571 17.6087C20.6312 17.5192 20.7149 17.4497 20.8109 17.4065C20.8893 17.3713 20.9764 17.3537 21.0646 17.3563L30.4407 17.694C30.5283 17.6977 30.6125 17.7244 30.6838 17.7726C30.7824 17.8393 30.8491 17.9385 30.8719 18.0538C30.8957 18.173 30.8714 18.2957 30.8025 18.398L25.1941 26.7624C25.0467 26.9815 24.7506 27.0415 24.5344 26.8955C24.4653 26.849 24.4109 26.7843 24.3769 26.7086L20.5245 18.133ZM15.1293 24.3106C14.9942 24.01 15.2069 23.6474 15.521 23.6136L21.26 23.0757L23.1411 27.2641C23.2838 27.5816 23.5112 27.8511 23.7974 28.0432C23.808 28.0507 23.8211 28.0533 23.8321 28.0607L22.467 29.3355L20.8969 28.2561C20.3431 27.8768 19.6544 27.8114 19.0525 28.0819C18.4928 28.3334 18.1111 28.8395 17.9923 29.4458L15.1865 24.4378L15.1293 24.3106ZM18.1837 39.368C18.1478 39.2883 18.1346 39.2007 18.1458 39.1151L19.3089 29.7748C19.3327 29.5848 19.4495 29.4242 19.6211 29.3471C19.7928 29.2699 19.9904 29.2891 20.148 29.3969L27.9054 34.7277C27.9771 34.7768 28.0338 34.8449 28.0697 34.9246C28.1749 35.1587 28.0746 35.4325 27.8459 35.5353L18.7889 39.6061C18.5603 39.7089 18.2889 39.6022 18.1837 39.368ZM18.3252 41.3353L39.333 31.8929C39.5411 32.356 39.8646 32.7255 40.2453 33.0037L38.6659 33.7136L38.9502 34.3461C39.7538 36.1339 41.2818 37.3656 43.0141 37.8422L24.0219 46.3786L18.5425 41.8187L18.3252 41.3353ZM24.8265 47.5378L45.2164 38.3731L45.7851 39.6383L25.3952 48.803L24.8265 47.5378ZM54.4353 35.7503L47.0208 39.0829L46.4354 37.7803C46.6493 37.7124 46.8613 37.6338 47.07 37.54L53.2488 34.7628C53.4576 34.669 53.6571 34.5626 53.8499 34.4477L54.4353 35.7503ZM52.6801 33.4976L46.5014 36.2748C44.3259 37.2526 41.7785 36.4116 40.514 34.4036L55.2556 27.7777C55.9178 30.0564 54.8557 32.5198 52.6801 33.4976Z" fill="black"/>
<path d="M23.4141 34.4863L24.6498 33.9309L25.2185 35.1961L23.9827 35.7515L23.4141 34.4863Z" fill="black"/>
<path d="M22.3896 18.9785L23.6254 18.4231L24.1941 19.6883L22.9583 20.2437L22.3896 18.9785Z" fill="black"/>
<path d="M25.9971 20.3984L27.2328 19.843L27.8015 21.1082L26.5657 21.6636L25.9971 20.3984Z" fill="black"/>
<path d="M30.125 24.627L31.3608 24.0715L31.9294 25.3367L30.6937 25.8921L30.125 24.627Z" fill="black"/>
<path d="M17.0117 25.1973L18.2475 24.6418L18.8161 25.907L17.5804 26.4624L17.0117 25.1973Z" fill="black"/>
<path d="M19.7178 26.2617L20.9535 25.7063L21.5222 26.9715L20.2864 27.5269L19.7178 26.2617Z" fill="black"/>
<path d="M19.8545 31.5234L21.0902 30.968L21.6589 32.2332L20.4232 32.7886L19.8545 31.5234Z" fill="black"/>
<path d="M25.7021 29.6562L26.9379 29.1008L27.5066 30.366L26.2708 30.9214L25.7021 29.6562Z" fill="black"/>
<path d="M32.0645 30.5977L33.3002 30.0422L33.8689 31.3074L32.6331 31.8628L32.0645 30.5977Z" fill="black"/>
<path d="M34.6855 24.8574L35.9213 24.302L36.49 25.5672L35.2542 26.1226L34.6855 24.8574Z" fill="black"/>
<path d="M37.3438 27.4648L38.5795 26.9094L39.1482 28.1746L37.9124 28.73L37.3438 27.4648Z" fill="black"/>
<path d="M19.71 36.1504L20.9457 35.595L21.5144 36.8601L20.2786 37.4156L19.71 36.1504Z" fill="black"/>
</g>
<defs>
<linearGradient id="paint0_linear_3873_4508" x1="60.5" y1="30" x2="60.5" y2="217" gradientUnits="userSpaceOnUse">
<stop stop-color="#39FF67"/>
<stop offset="1" stop-color="#39FF67" stop-opacity="0"/>
</linearGradient>
<clipPath id="clip0_3873_4508">
<rect width="42" height="43" fill="white" transform="translate(6 17.2188) rotate(-24.2025)"/>
</clipPath>
</defs>
</svg>
