<svg width="117" height="209" viewBox="0 0 117 209" fill="none" xmlns="http://www.w3.org/2000/svg">
<ellipse cx="32.2909" cy="30.0396" rx="27.5" ry="24.5" transform="rotate(-12.9495 32.2909 30.0396)" fill="#5A5A5A" fill-opacity="0.51"/>
<path d="M2 30.002C2 25.5837 5.58172 22.002 10 22.002H67C94.6142 22.002 117 44.3877 117 72.002V201.002C117 205.42 113.418 209.002 109 209.002H10C5.58172 209.002 2 205.42 2 201.002V30.002Z" fill="url(#paint0_linear_3873_4513)"/>
<g clip-path="url(#clip0_3873_4513)">
<path d="M30.6987 19.2925C30.8305 18.2822 31.475 17.3648 32.4782 16.9311C33.9946 16.2756 35.7552 16.9736 36.4107 18.4899C36.4579 18.5992 36.4973 18.7099 36.5307 18.8213C36.8213 18.5856 37.1355 18.3924 37.4664 18.2494C37.7728 18.1169 38.0803 18.0341 38.3833 17.9996C38.3463 17.8958 38.3069 17.7922 38.2625 17.6896C37.1649 15.1504 34.2168 13.9818 31.6777 15.0793C30.1644 15.7335 29.1383 17.0449 28.7882 18.5354L30.6987 19.2925Z" fill="#FED2A4"/>
<path d="M18.4625 35.4151L18.5501 35.3569L18.4674 35.2918C18.3259 35.1804 18.1948 35.0624 18.0733 34.9395C16.6596 35.3261 15.1405 34.6245 14.5422 33.2404C13.8868 31.724 14.5847 29.9633 16.1011 29.3079C16.8946 28.9649 17.7548 28.993 18.4887 29.3146C18.3922 28.7976 18.435 28.2858 18.6226 27.8124C18.6934 27.6337 18.783 27.4655 18.8896 27.3083C17.7571 26.9256 16.4845 26.9443 15.3007 27.456C12.7616 28.5536 11.5929 31.5018 12.6905 34.0409C13.4849 35.8787 15.2489 36.9978 17.1255 37.06C17.3313 36.4434 17.794 35.859 18.4625 35.4151Z" fill="#FED2A4"/>
<path d="M28.8844 25.3541C29.0425 25.1732 29.243 25.0291 29.4827 24.9255C29.8809 24.7534 30.3843 24.6958 30.9387 24.759L31.0527 24.7719L31.0204 24.6617C30.4562 22.7401 30.849 20.9986 31.9543 20.5208C32.7552 20.1746 33.7886 20.5388 34.7185 21.4951L34.8109 21.59L34.8465 21.4625C34.8982 21.2771 34.9586 21.0968 35.0257 20.926L24.6536 16.8146C24.4418 16.7306 24.2048 16.8447 24.1344 17.0614C23.3509 19.4733 24.0484 22.0508 25.7717 23.7486C26.7219 23.448 27.9438 24.0914 28.8844 25.3541Z" fill="#FB2B3A"/>
<path d="M28.8844 25.3541C29.0425 25.1732 29.243 25.0291 29.4827 24.9255C29.5545 24.8945 29.6308 24.8685 29.7091 24.845C27.0072 23.4661 25.6173 20.4017 26.326 17.4776L24.6536 16.8146C24.4418 16.7306 24.2048 16.8447 24.1344 17.0614C23.3509 19.4733 24.0484 22.0508 25.7717 23.7486C26.7219 23.448 27.9438 24.0914 28.8844 25.3541Z" fill="#E41F2D"/>
<path d="M29.0265 23.3127C28.8923 23.3707 28.7359 23.3776 28.5893 23.3194C28.296 23.2031 28.1525 22.8711 28.2688 22.5778L28.5983 21.7464C28.7146 21.4531 29.0466 21.3096 29.3399 21.4259C29.6332 21.5422 29.7767 21.8742 29.6604 22.1675L29.3309 22.9988C29.2727 23.1456 29.1607 23.2547 29.0265 23.3127Z" fill="#FE646F"/>
<path d="M27.7303 20.813L26.9094 21.1678C26.6198 21.293 26.2835 21.1597 26.1583 20.8701C26.0331 20.5805 26.1664 20.2442 26.456 20.119L27.277 19.7642C27.5666 19.639 27.9028 19.7723 28.028 20.0619C28.1532 20.3515 28.0199 20.6878 27.7303 20.813Z" fill="#FE646F"/>
<path d="M21.4148 21.4022C22.5519 18.5336 21.2597 15.303 18.5216 13.9856C18.3163 13.8868 18.0699 13.983 17.9859 14.1948L13.9792 24.303C13.8952 24.5148 14.0088 24.7537 14.226 24.8224C17.123 25.7387 20.2777 24.2708 21.4148 21.4022Z" fill="#FD4755"/>
<path d="M14.8516 22.6055C14.7882 22.5855 14.735 22.5498 14.6916 22.5057L13.9791 24.3031C13.8951 24.5149 14.0087 24.7538 14.2259 24.8225C17.123 25.7389 20.2777 24.271 21.4148 21.4024C21.6369 20.8419 21.7652 20.2676 21.8092 19.6963C20.5177 22.2247 17.5712 23.4657 14.8516 22.6055Z" fill="#FB2B3A"/>
<path d="M19.5161 21.1707C19.382 21.2287 19.2256 21.2356 19.079 21.1774L18.3374 20.8835C18.0441 20.7672 17.9006 20.4351 18.0169 20.1419C18.1331 19.8486 18.4652 19.705 18.7584 19.8213L19.5 20.1153C19.7933 20.2316 19.9368 20.5636 19.8205 20.8569C19.7624 21.0035 19.6503 21.1127 19.5161 21.1707Z" fill="#E41F2D"/>
<path d="M17.6009 23.0563C17.3113 23.1814 16.975 23.0481 16.8498 22.7585L16.5333 22.0263C16.4081 21.7367 16.5414 21.4005 16.831 21.2753C17.1206 21.1501 17.4569 21.2834 17.5821 21.573L17.8986 22.3052C18.0238 22.5948 17.8905 22.9311 17.6009 23.0563Z" fill="#E41F2D"/>
<path d="M19.5371 18.4822L18.8049 18.7987C18.5153 18.9239 18.179 18.7906 18.0538 18.501C17.9286 18.2114 18.0619 17.8751 18.3515 17.7499L19.0837 17.4334C19.3733 17.3082 19.7096 17.4415 19.8348 17.7311C19.96 18.0207 19.8267 18.357 19.5371 18.4822Z" fill="#E41F2D"/>
<path d="M24.2797 37.7252C24.1331 37.386 24.0291 37.0391 23.9627 36.6903C22.5296 36.8355 21.351 36.4083 20.9709 35.529C20.6247 34.7283 20.9887 33.6951 21.9445 32.7654L22.0392 32.6732L21.912 32.6374C21.7241 32.5847 21.5417 32.5234 21.3699 32.4553C20.3263 32.0416 19.4687 31.3417 18.9474 30.4816C18.2165 30.6251 17.6018 31.0136 17.2572 31.6255C16.6088 32.7768 17.1318 34.3359 18.4209 35.3509C17.3041 36.0926 16.7032 37.2683 17.0078 38.3581C17.2582 39.2542 18.0626 39.8821 19.0852 40.1078L24.3327 37.8395C24.315 37.8014 24.2965 37.7639 24.2797 37.7252Z" fill="#80D261"/>
<path d="M31.6496 34.6781C31.6524 34.6681 31.6561 34.6579 31.6588 34.648C31.6464 34.6164 31.6343 34.5847 31.6208 34.5533C30.9496 33.0008 29.1407 32.2837 27.5881 32.9548C26.0356 33.6259 25.3184 35.4349 25.9895 36.9875C26.0063 37.0263 26.025 37.0637 26.0431 37.1015L31.6496 34.6781Z" fill="#017B4E"/>
<path d="M26.8476 31.2425C28.4251 30.5606 30.1668 30.7709 31.508 31.6472C31.2877 31.2048 31.1179 30.7378 31.0029 30.2554C30.9142 30.1953 30.8261 30.1336 30.7389 30.0688C29.8103 29.3785 29.099 28.5139 28.7361 27.634C28.3787 26.7674 28.4034 25.9919 28.8058 25.4505C28.8453 25.3973 28.8884 25.3471 28.9345 25.2996C27.9375 23.9677 26.6131 23.294 25.5954 23.7339C24.7369 24.105 24.3068 25.1781 24.3653 26.4883C24.194 26.3985 24.0161 26.3158 23.8308 26.2423C21.6021 25.3589 19.2376 26.0498 18.5495 27.7856C17.8615 29.5214 19.1104 31.6447 21.3391 32.5282C21.5217 32.6006 21.7052 32.6613 21.8887 32.7128C20.9489 33.627 20.5272 34.7031 20.8982 35.5612C21.2992 36.4889 22.5198 36.9166 23.9737 36.7677C23.5102 34.5262 24.6658 32.1856 26.8476 31.2425Z" fill="#017B4E"/>
<path d="M26.9882 35.6482C26.5826 35.7354 26.1875 35.7801 25.814 35.7841C25.8159 36.191 25.9012 36.6043 26.0798 37.0001C26.0802 37.0003 26.0805 37.0004 26.0809 37.0006L27.4805 36.3956C27.4638 36.274 27.4545 36.1481 27.4524 36.0183C27.4485 35.7748 27.2263 35.5969 26.9882 35.6482Z" fill="#026841"/>
<path d="M20.8984 35.5605C21.2923 36.4719 22.4772 36.9013 23.8975 36.7749C23.7933 36.2695 23.771 35.7596 23.8222 35.2614C23.561 35.0729 23.3597 34.8352 23.2364 34.55C22.9202 33.8185 23.1798 32.9288 23.8452 32.116C24.0096 31.915 23.9243 31.6144 23.6827 31.519C23.6809 31.5183 23.6791 31.5176 23.6772 31.5168C21.4485 30.6334 20.1996 28.5101 20.8877 26.7743C21.0233 26.432 21.225 26.1311 21.4772 25.8741C20.1292 25.9848 18.9922 26.6682 18.5496 27.7849C17.8615 29.5207 19.1104 31.644 21.3391 32.5275C21.5217 32.5998 21.7053 32.6606 21.8887 32.7121C20.949 33.6262 20.5274 34.7023 20.8984 35.5605Z" fill="#026841"/>
<path d="M26.352 31.4918C26.5112 31.4005 26.6766 31.3164 26.849 31.2419C27.2189 31.082 27.5979 30.9723 27.9787 30.9076L23.8834 29.2842C23.5901 29.168 23.2581 29.3115 23.1419 29.6048C23.0256 29.8981 23.1691 30.2301 23.4624 30.3463L26.352 31.4918Z" fill="#026841"/>
<path d="M41.0015 23.9041C41.0896 23.7351 41.1711 23.5598 41.2435 23.3772C42.1269 21.1486 41.436 18.7841 39.7002 18.096C37.9644 17.408 35.8411 18.6569 34.9577 20.8856C34.8842 21.0709 34.8226 21.2572 34.7706 21.4434C33.8563 20.5032 32.78 20.0812 31.9215 20.4523C30.7554 20.9564 30.3782 22.7549 30.9447 24.6846C29.9983 24.5768 29.1871 24.8083 28.7445 25.4038C27.8781 26.5693 28.7505 28.6847 30.6931 30.1287C30.8039 30.211 30.9161 30.2879 31.0286 30.3623C30.7373 29.2271 30.7503 28.0031 31.1297 26.8168C31.1601 26.7218 31.23 26.6446 31.3215 26.6051C31.4053 26.5689 31.4983 26.5674 31.5831 26.601L41.3627 30.4777L42.5068 29.9831C42.32 29.5864 41.9929 29.2136 41.5593 28.8906C43.2986 27.8733 44.2597 26.3019 43.7549 25.1343C43.3838 24.276 42.3112 23.8459 41.0015 23.9041Z" fill="#68CA44"/>
<path d="M37.8778 22.6884C37.5845 22.5721 37.2525 22.7157 37.1363 23.009L35.1788 27.9471L36.2409 28.3681L38.1984 23.43C38.3147 23.1367 38.1711 22.8047 37.8778 22.6884Z" fill="#80D261"/>
<path d="M33.3348 33.8111C33.3393 33.8214 33.3434 33.8318 33.3474 33.8421L33.3816 33.9281L41.4645 30.4342L31.6141 26.5296C31.3881 26.44 31.1341 26.5613 31.0601 26.7928C30.541 28.4159 30.6933 30.1127 31.3779 31.5621C32.2186 32.0743 32.9153 32.8406 33.3348 33.8111Z" fill="white"/>
<path d="M37.327 32.2231L39.7564 31.173C40.0618 30.8577 40.3121 30.4788 40.484 30.0453L34.0718 27.5035C33.3699 29.2742 34.2363 31.2786 36.007 31.9805C36.4405 32.1523 36.888 32.2296 37.327 32.2231Z" fill="#FEDF74"/>
<path d="M37.329 32.2223L38.5169 31.7088C38.0778 31.7154 37.6301 31.6382 37.1965 31.4663C35.7209 30.8814 34.8743 29.3919 35.0389 27.8869L34.0718 27.5035C33.3699 29.2742 34.2363 31.2786 36.007 31.9805C36.4411 32.1526 36.8893 32.2291 37.329 32.2223Z" fill="#FED402"/>
<path d="M26.1128 37.0696C26.0946 37.0319 26.0767 36.9941 26.0599 36.9553C25.4044 35.4388 26.1024 33.6782 27.6187 33.0228C29.1351 32.3673 30.8958 33.0652 31.5512 34.5816C31.568 34.6204 31.5833 34.6594 31.5983 34.6985L33.4502 33.898C33.4345 33.8591 33.4199 33.8199 33.4031 33.7811C32.3055 31.2419 29.3574 30.0733 26.8182 31.1709C24.2791 32.2684 23.1105 35.2166 24.208 37.7558C24.2248 37.7946 24.2433 37.832 24.261 37.8701L26.1128 37.0696Z" fill="#FED2A4"/>
<path d="M30.9914 50.8656L41.2232 46.4428C41.3628 46.3825 41.4902 46.2966 41.5962 46.1875C45.7361 41.9287 47.2517 35.5269 45.0723 29.6828C44.9163 29.2644 44.4379 29.0654 44.0279 29.2426L16.5409 41.1241C16.131 41.3013 15.9481 41.786 16.146 42.1864C18.9098 47.778 24.6113 51.06 30.5499 50.9624C30.702 50.9599 30.8518 50.9259 30.9914 50.8656Z" fill="#7E7A8C"/>
<path d="M20.402 43.4766L17.6641 44.6602C20.716 48.7318 25.5484 51.0461 30.549 50.964C30.7011 50.9615 30.8509 50.9275 30.9905 50.8672L33.7285 49.6837C33.5889 49.744 33.439 49.778 33.287 49.7805C28.2864 49.8627 23.454 47.5483 20.402 43.4766Z" fill="#BFBFBF"/>
<path d="M44.0279 29.2426L16.5409 41.1241C16.131 41.3013 15.9481 41.786 16.146 42.1864C16.5825 43.0696 17.0925 43.8949 17.665 44.6586L45.8324 32.483C45.6683 31.5428 45.4165 30.6058 45.0723 29.6828C44.9163 29.2644 44.4378 29.0654 44.0279 29.2426Z" fill="#757575"/>
<path d="M16.146 42.1864C16.5825 43.0696 17.0925 43.8949 17.665 44.6586L20.4029 43.4751C19.8305 42.7113 19.3205 41.886 18.884 41.0029C18.6861 40.6026 18.869 40.1177 19.2789 39.9405L16.5409 41.1241C16.131 41.3013 15.9481 41.7861 16.146 42.1864Z" fill="#7E7A8C"/>
<path d="M31.1493 12.2308C31.3035 12.1087 31.3444 11.8908 31.2432 11.7221C30.8413 11.0514 30.2241 10.5026 29.441 10.1921C28.658 9.88173 27.8324 9.85856 27.0801 10.0718C26.8909 10.1254 26.7714 10.3122 26.8 10.5067L27.3826 14.463C27.4266 14.7618 27.7775 14.9009 28.0143 14.7134L31.1493 12.2308Z" fill="#FE9901"/>
<path d="M28.9576 13.7823L28.3925 9.94503C27.9456 9.90728 27.5013 9.95243 27.0801 10.0718C26.8909 10.1254 26.7714 10.3122 26.8 10.5067L27.3826 14.463C27.4266 14.7618 27.7775 14.9009 28.0143 14.7134L29.0085 13.926C28.9835 13.8838 28.9654 13.8357 28.9576 13.7823Z" fill="#FB8801"/>
</g>
<defs>
<linearGradient id="paint0_linear_3873_4513" x1="59.5" y1="22.002" x2="59.5" y2="209.002" gradientUnits="userSpaceOnUse">
<stop stop-color="#5A5A5A"/>
<stop offset="1" stop-color="#5A5A5A" stop-opacity="0"/>
</linearGradient>
<clipPath id="clip0_3873_4513">
<rect width="39" height="39" fill="white" transform="translate(3 20.4766) rotate(-23.3768)"/>
</clipPath>
</defs>
</svg>
