<svg width="49" height="49" viewBox="0 0 49 49" fill="none" xmlns="http://www.w3.org/2000/svg">
<g clip-path="url(#clip0_825_4615)">
<path d="M6.19638 16.9297V26.4552H4.70232C4.2429 26.4552 3.80215 26.5375 3.39502 26.6893V16.9297C4.28987 17.2898 5.29985 17.2905 6.19638 16.9297Z" fill="#997AFF"/>
<path d="M6.66355 37.6548C6.66355 38.4175 6.74853 39.1608 6.91009 39.8762H4.70242C2.38549 39.8762 0.5 38.0074 0.5 35.711V30.1574C0.5 27.861 2.38549 25.9922 4.70242 25.9922H6.93157C6.756 26.7364 6.66355 27.5102 6.66355 28.3062V37.6548Z" fill="#2B186B"/>
<path d="M4.79531 17.6608C7.11604 17.6608 8.99736 15.7961 8.99736 13.4959C8.99736 11.1957 7.11604 9.33105 4.79531 9.33105C2.47458 9.33105 0.593262 11.1957 0.593262 13.4959C0.593262 15.7961 2.47458 17.6608 4.79531 17.6608Z" fill="#2B186B"/>
<path d="M48.3139 30.1574V35.711C48.3139 38.0074 46.4284 39.8762 44.1114 39.8762H41.9038C42.0653 39.1608 42.1503 38.4175 42.1503 37.6548V28.3062C42.1503 27.5213 42.0588 26.7447 41.8813 25.9922H44.1114C46.4284 25.9922 48.3139 27.861 48.3139 30.1574Z" fill="#151515"/>
<path d="M42.6173 28.3066V37.6551C42.6173 43.5244 37.7994 48.2996 31.8777 48.2996H16.9358C11.0141 48.2996 6.19629 43.5244 6.19629 37.6551V28.3066C6.19629 22.4373 11.0141 17.6621 16.9358 17.6621H19.2705V24.6041C19.2705 25.1762 19.7561 25.5307 20.2072 25.5307C20.35 25.5307 20.4901 25.4973 20.6218 25.4316L25.9299 22.802C25.9944 22.7696 26.0653 22.7529 26.1382 22.7529H41.039C42.0653 24.4135 42.6173 26.3322 42.6173 28.3066Z" fill="#D0C2FF"/>
<path d="M42.6172 28.3066V37.6551C42.6172 43.5244 37.7994 48.2996 31.8777 48.2996H24.4067V23.5564L25.9299 22.802C25.9943 22.7696 26.0653 22.7529 26.1381 22.7529H41.039C42.0339 24.3542 42.6172 26.283 42.6172 28.3066Z" fill="#997AFF"/>
<path d="M42.2439 0.908203H24.8739C21.5268 0.908203 18.8037 3.60717 18.8037 6.92463V24.6037C18.8037 25.6395 19.9056 26.3042 20.831 25.8454L26.1384 23.2153H42.2439C45.591 23.2153 48.314 20.5163 48.314 17.1988V6.92463C48.314 3.60717 45.591 0.908203 42.2439 0.908203Z" fill="#EBFFF0"/>
<path d="M48.3142 6.92463V17.1988C48.3142 20.5162 45.5911 23.2153 42.2441 23.2153H33.5591V0.908203H42.2441C45.5911 0.908203 48.3142 3.60726 48.3142 6.92463Z" fill="#A4FFB9"/>
<path d="M25.9013 10.7202H41.2168C41.9904 10.7202 42.6176 10.0985 42.6176 9.33176C42.6176 8.56499 41.9904 7.94336 41.2168 7.94336H25.9013C25.1277 7.94336 24.5005 8.56499 24.5005 9.33176C24.5005 10.0985 25.1277 10.7202 25.9013 10.7202Z" fill="#A3A3A3"/>
<path d="M42.6168 9.33164C42.6168 10.098 41.9893 10.7199 41.2161 10.7199H33.5591V7.94336H41.2161C41.9893 7.94336 42.6168 8.56531 42.6168 9.33164Z" fill="#757575"/>
<path d="M41.2168 13.4961H25.9013C25.1277 13.4961 24.5005 14.1177 24.5005 14.8845C24.5005 15.6513 25.1277 16.2729 25.9013 16.2729H41.2168C41.9904 16.2729 42.6176 15.6513 42.6176 14.8845C42.6176 14.1177 41.9904 13.4961 41.2168 13.4961Z" fill="#A3A3A3"/>
<path d="M42.6168 14.8844C42.6168 15.6507 41.9893 16.2727 41.2161 16.2727H33.5591V13.4961H41.2161C41.9893 13.4961 42.6168 14.118 42.6168 14.8844Z" fill="#757575"/>
<path d="M17.4026 28.7686C16.6291 28.7686 16.002 29.3901 16.002 30.1568V32.9334C16.002 33.7001 16.6291 34.3217 17.4026 34.3217C18.1762 34.3217 18.8033 33.7001 18.8033 32.9334V30.1568C18.8033 29.3901 18.1762 28.7686 17.4026 28.7686Z" fill="#151515"/>
<path d="M31.4109 28.7686C30.6374 28.7686 30.0103 29.3901 30.0103 30.1568V32.9334C30.0103 33.7001 30.6374 34.3217 31.4109 34.3217C32.1845 34.3217 32.8116 33.7001 32.8116 32.9334V30.1568C32.8116 29.3901 32.1845 28.7686 31.4109 28.7686Z" fill="#151515"/>
<path d="M27.208 37.0996H21.6053C20.8317 37.0996 20.2046 37.7212 20.2046 38.4879C20.2046 39.2546 20.8317 39.8762 21.6053 39.8762H27.208C27.9816 39.8762 28.6087 39.2546 28.6087 38.4879C28.6087 37.7212 27.9816 37.0996 27.208 37.0996Z" fill="#151515"/>
<path d="M28.6088 38.4879C28.6088 39.2542 27.9813 39.8762 27.2081 39.8762H24.4067V37.0996H27.2081C27.9813 37.0996 28.6088 37.7216 28.6088 38.4879Z" fill="#2B186B"/>
</g>
<defs>
<clipPath id="clip0_825_4615">
<rect width="47.8142" height="47.3909" fill="white" transform="translate(0.5 0.908203)"/>
</clipPath>
</defs>
</svg>
