<svg width="24" height="24" viewBox="0 0 24 24" fill="none" xmlns="http://www.w3.org/2000/svg">
<g clip-path="url(#clip0_450_18469)">
<mask id="mask0_450_18469" style="mask-type:luminance" maskUnits="userSpaceOnUse" x="0" y="0" width="24" height="24">
<path d="M0 0H24V24H0V0Z" fill="white"/>
</mask>
<g mask="url(#mask0_450_18469)">
<path d="M23.4992 14.0002C23.3952 14.0002 23.2902 13.9672 23.2002 13.9002L21.2002 12.4002C20.9792 12.2342 20.9342 11.9212 21.1002 11.7002C21.2662 11.4792 21.5792 11.4342 21.8002 11.6002L23.8002 13.1002C24.0212 13.2662 24.0662 13.5792 23.9002 13.8002C23.8022 13.9312 23.6522 14.0002 23.4992 14.0002Z" fill="url(#paint0_linear_450_18469)"/>
<path d="M13.5002 14.0009C13.3482 14.0009 13.1982 13.9319 13.1002 13.8009C12.9342 13.5799 12.9792 13.2669 13.2002 13.1009L15.2002 11.6009C15.4202 11.4339 15.7342 11.4789 15.9002 11.7009C16.0662 11.9219 16.0212 12.2349 15.8002 12.4009L13.8002 13.9009C13.7102 13.9679 13.6052 14.0009 13.5002 14.0009Z" fill="url(#paint1_linear_450_18469)"/>
<path d="M18.5 13C15.467 13 13 15.467 13 18.5C13 21.533 15.467 24 18.5 24C21.533 24 24 21.533 24 18.5C24 15.467 21.533 13 18.5 13ZM20.853 20.854C20.756 20.951 20.628 21 20.5 21C20.372 21 20.244 20.951 20.146 20.854L18.146 18.854C18.053 18.76 18 18.633 18 18.5V15.5C18 15.224 18.224 15 18.5 15C18.776 15 19 15.224 19 15.5V18.293L20.854 20.147C21.049 20.342 21.049 20.658 20.853 20.854Z" fill="url(#paint2_linear_450_18469)"/>
<path d="M12 18.5C12 17.182 12.397 15.956 13.074 14.93C12.769 14.838 12.493 14.658 12.299 14.399C12.06 14.081 11.959 13.686 12.015 13.289C12.071 12.892 12.28 12.541 12.601 12.3L14.6 10.8C14.859 10.604 15.171 10.499 15.499 10.499C15.744 10.499 15.982 10.563 16.195 10.675C16.075 9.938 16 9.203 16 8.5C16 5.802 14.346 3.483 12 2.501C12 1.123 10.879 0 9.5 0C8.121 0 7 1.122 7 2.5C4.654 3.482 3 5.802 3 8.5C3 12.528 0.646 17.563 0.175 18.531C0.059 18.767 0 19.021 0 19.285C0 20.231 0.769 21 1.715 21H6.05C6.295 22.692 7.741 24 9.499 24C11.036 24 12.333 23.001 12.8 21.62C12.291 20.693 12 19.63 12 18.5ZM9.5 5C7.57 5 6 6.57 6 8.5C6 12.266 4.371 16.508 3.4 18.702C3.318 18.889 3.135 19 2.943 19C2.875 19 2.806 18.986 2.741 18.957C2.488 18.846 2.374 18.55 2.486 18.298C3.425 16.176 5 12.082 5 8.5C5 6.019 7.018 4 9.5 4C9.776 4 10 4.224 10 4.5C10 4.776 9.776 5 9.5 5ZM9.5 2C8.997 2 8.509 2.063 8.039 2.172C8.189 1.502 8.786 1 9.5 1C10.214 1 10.811 1.502 10.961 2.172C10.491 2.063 10.003 2 9.5 2Z" fill="url(#paint3_linear_450_18469)"/>
</g>
</g>
<defs>
<linearGradient id="paint0_linear_450_18469" x1="12.0002" y1="0.000190055" x2="12.0002" y2="24.0002" gradientUnits="userSpaceOnUse">
<stop stop-color="#003AFF"/>
<stop offset="1" stop-color="#90A8F9"/>
</linearGradient>
<linearGradient id="paint1_linear_450_18469" x1="12.0002" y1="0.000915157" x2="12.0002" y2="24.0009" gradientUnits="userSpaceOnUse">
<stop stop-color="#003AFF"/>
<stop offset="1" stop-color="#90A8F9"/>
</linearGradient>
<linearGradient id="paint2_linear_450_18469" x1="12" y1="-1.9507e-07" x2="12" y2="24" gradientUnits="userSpaceOnUse">
<stop stop-color="#003AFF"/>
<stop offset="1" stop-color="#90A8F9"/>
</linearGradient>
<linearGradient id="paint3_linear_450_18469" x1="12" y1="0" x2="12" y2="24" gradientUnits="userSpaceOnUse">
<stop stop-color="#6739FF"/>
<stop offset="1" stop-color="#90A8F9"/>
<stop offset="1" stop-color="#B9A4FF"/>
</linearGradient>
<clipPath id="clip0_450_18469">
<rect width="24" height="24" fill="white"/>
</clipPath>
</defs>
</svg>
