<svg width="28" height="29" viewBox="0 0 28 29" fill="none" xmlns="http://www.w3.org/2000/svg">
<path d="M28.0017 26.4102H10.0024V26.928C10.0017 27.6933 9.72742 28.4313 9.23242 28.9994H26.0018C26.5322 28.9994 27.0409 28.7812 27.416 28.3927C27.791 28.0043 28.0017 27.4774 28.0017 26.928V26.4102Z" fill="#997AFF"/>
<path d="M0 3.62444H3.99985V3.10658C3.99985 2.55721 3.78914 2.03033 3.41409 1.64186C3.03903 1.2534 2.53034 1.03516 1.99993 1.03516C1.46951 1.03516 0.960823 1.2534 0.585764 1.64186C0.210706 2.03033 0 2.55721 0 3.10658V3.62444Z" fill="#997AFF"/>
<path d="M6.99792 28.9994C7.52834 28.9994 8.03703 28.7812 8.41208 28.3927C8.78714 28.0043 8.99785 27.4774 8.99785 26.928V26.4101C8.99864 26.1357 9.10425 25.8727 9.2916 25.6787C9.47896 25.4846 9.73285 25.3753 9.99781 25.3744H22.9973V24.2041C22.6706 24.2912 22.3347 24.3364 21.9974 24.3387C20.9365 24.3387 19.9192 23.9022 19.169 23.1253C18.4189 22.3484 17.9975 21.2946 17.9975 20.1959C17.9975 19.0971 18.4189 18.0434 19.169 17.2664C19.9192 16.4895 20.9365 16.053 21.9974 16.053C22.3347 16.0553 22.6706 16.1005 22.9973 16.1876V3.10658C22.9973 2.55721 22.7866 2.03033 22.4116 1.64186C22.0365 1.2534 21.5278 1.03516 20.9974 1.03516H16.4976C16.7625 1.03598 17.0164 1.14536 17.2038 1.33942C17.3911 1.53347 17.4967 1.79643 17.4975 2.07087V3.10658C17.4967 3.38102 17.3911 3.64398 17.2038 3.83804C17.0164 4.0321 16.7625 4.14148 16.4976 4.1423H15.4976V5.17801C15.4968 5.45245 15.3912 5.71541 15.2038 5.90947C15.0165 6.10352 14.7626 6.21291 14.4976 6.21373H13.4977C13.2327 6.21291 12.9788 6.10352 12.7915 5.90947C12.6041 5.71541 12.4985 5.45245 12.4977 5.17801V4.1423H11.4978C11.2328 4.14148 10.9789 4.0321 10.7915 3.83804C10.6042 3.64398 10.4986 3.38102 10.4978 3.10658V2.07087C10.4986 1.79643 10.6042 1.53347 10.7915 1.33942C10.9789 1.14536 11.2328 1.03598 11.4978 1.03516H4.22803C4.72303 1.60334 4.99732 2.34128 4.998 3.10658V26.928C4.998 27.4774 5.2087 28.0043 5.58376 28.3927C5.95882 28.7812 6.46751 28.9994 6.99792 28.9994ZM15.9976 23.8209H6.99792V22.7851H15.9976V23.8209ZM15.9976 21.7494H6.99792V20.7137H15.9976V21.7494ZM15.9976 19.678H6.99792V18.6423H15.9976V19.678ZM14.9976 7.7673H20.9974V8.80301H14.9976V7.7673ZM14.9976 9.83872H20.9974V10.8744H14.9976V9.83872ZM14.9976 11.9102H20.9974V12.9459H14.9976V11.9102ZM14.9976 13.9816H20.9974V15.0173H14.9976V13.9816ZM15.9976 16.5709V17.6066H6.99792V16.5709H15.9976ZM5.99796 10.3566H6.99792V10.8744H7.5479C7.6123 10.5502 7.73657 10.242 7.91389 9.96663L7.5224 9.56115L7.16892 9.92728L6.46194 9.19503L7.87639 7.73053L8.58336 8.46278L8.22938 8.8289L8.62086 9.23439C8.88688 9.05058 9.18465 8.92169 9.49783 8.8548V8.28515H8.99785V7.24944H10.9978V8.28515H10.4978V8.8548C10.8108 8.9216 11.1084 9.0503 11.3743 9.23387L11.7657 8.82839L11.4118 8.46226L12.1187 7.73001L13.5332 9.19451L12.8262 9.92676L12.4727 9.56063L12.0812 9.96612C12.2588 10.2416 12.3832 10.55 12.4477 10.8744H12.9977V10.3566H13.9977V12.428H12.9977V11.9102H12.4477C12.3833 12.2343 12.259 12.5426 12.0817 12.818L12.4732 13.2234L12.8267 12.8573L13.5337 13.5896L12.1192 15.0541L11.4123 14.3218L11.7662 13.9557L11.3748 13.5502C11.1087 13.734 10.811 13.8629 10.4978 13.9298V14.4994H10.9978V15.5352H8.99785V14.4994H9.49783V13.9298C9.18486 13.863 8.88726 13.7343 8.62136 13.5507L8.22988 13.9562L8.58387 14.3223L7.87689 15.0546L6.46244 13.5901L7.16942 12.8578L7.5229 13.224L7.91439 12.8185C7.73684 12.543 7.61239 12.2346 7.5479 11.9102H6.99792V12.428H5.99796V10.3566Z" fill="#997AFF"/>
<path d="M18.9985 20.197C18.9985 20.8115 19.1745 21.4123 19.5041 21.9232C19.8337 22.4342 20.3023 22.8324 20.8504 23.0676C21.3986 23.3028 22.0018 23.3643 22.5837 23.2444C23.1656 23.1245 23.7001 22.8286 24.1197 22.3941C24.5392 21.9595 24.8249 21.4059 24.9407 20.8032C25.0564 20.2004 24.997 19.5757 24.77 19.0079C24.5429 18.4402 24.1584 17.9549 23.6651 17.6135C23.1717 17.2721 22.5917 17.0898 21.9984 17.0898C21.2028 17.0898 20.4398 17.4172 19.8772 17.9999C19.3146 18.5826 18.9985 19.3729 18.9985 20.197ZM23.9983 19.6791V20.7148H22.4984V22.2684H21.4984V20.7148H19.9985V19.6791H21.4984V18.1256H22.4984V19.6791H23.9983Z" fill="#997AFF"/>
<path d="M9.99799 12.947C10.8264 12.947 11.4979 12.2514 11.4979 11.3934C11.4979 10.5354 10.8264 9.83984 9.99799 9.83984C9.16959 9.83984 8.49805 10.5354 8.49805 11.3934C8.49805 12.2514 9.16959 12.947 9.99799 12.947Z" fill="#997AFF"/>
<path d="M11.4995 2.07143V3.10714H12.9995C13.1321 3.10714 13.2592 3.1617 13.353 3.25882C13.4468 3.35594 13.4994 3.48765 13.4994 3.625V5.17857H14.4994V3.625C14.4994 3.48765 14.5521 3.35594 14.6458 3.25882C14.7396 3.1617 14.8668 3.10714 14.9994 3.10714H16.4993V2.07143H14.9994C14.8668 2.07143 14.7396 2.01687 14.6458 1.91975C14.5521 1.82263 14.4994 1.69092 14.4994 1.55357V0H13.4994V1.55357C13.4994 1.69092 13.4468 1.82263 13.353 1.91975C13.2592 2.01687 13.1321 2.07143 12.9995 2.07143H11.4995Z" fill="#997AFF"/>
</svg>
