<svg width="26" height="27" viewBox="0 0 26 27" fill="none" xmlns="http://www.w3.org/2000/svg">
<path d="M19.8939 27L17.6708 21.7742H2.22309L0 27H19.8939ZM2.85019 22.6452H17.0437L18.5258 26.129H1.36813L2.85019 22.6452ZM20.7924 5.19489L19.8499 6.96774H18.6244C17.9506 2.97044 14.2968 0 9.94695 0C5.09459 0 1.14721 3.71163 1.14721 8.27419C1.14721 11.5164 3.14568 14.3213 6.04079 15.6774H4.07567L1.85258 20.9032H18.0413L15.8182 15.6774H13.8837C16.3583 14.5147 18.1692 12.2815 18.6249 9.58065H19.8504L20.7933 11.3535L26 10.8096L24.3813 8.27419L25.9991 5.73881L20.7924 5.19489ZM12.3479 7.83871H12.2159C12.0005 6.84624 11.0654 6.09677 9.94695 6.09677C8.67006 6.09677 7.63123 7.07356 7.63123 8.27419C7.63123 9.47482 8.67006 10.4516 9.94695 10.4516C11.065 10.4516 12.0005 9.70215 12.2159 8.70968H12.3479C12.4577 8.99971 12.6716 9.2401 12.9491 9.39469C12.466 10.5448 11.2891 11.3226 9.94695 11.3226C8.15921 11.3226 6.70494 9.95516 6.70494 8.27419C6.70494 6.59323 8.15921 5.22581 9.94695 5.22581C11.2891 5.22581 12.466 6.00358 12.9495 7.15369C12.6716 7.30829 12.4581 7.54868 12.3479 7.83871ZM11.2512 8.70968C11.0594 9.21527 10.55 9.58065 9.94695 9.58065C9.18091 9.58065 8.55752 8.99448 8.55752 8.27419C8.55752 7.5539 9.18091 6.96774 9.94695 6.96774C10.55 6.96774 11.0594 7.33311 11.2512 7.83871H9.48381V8.70968H11.2512ZM13.8721 6.96774C13.2895 5.41306 11.7259 4.35484 9.94695 4.35484C7.64883 4.35484 5.77865 6.11332 5.77865 8.27419C5.77865 10.4351 7.64883 12.1935 9.94695 12.1935C11.7264 12.1935 13.2899 11.1353 13.8721 9.58065H15.7974C15.1629 12.0956 12.7374 13.9355 9.94695 13.9355C6.62713 13.9355 3.92608 11.3957 3.92608 8.27419C3.92608 5.15265 6.62713 2.6129 9.94695 2.6129C12.7374 2.6129 15.1629 4.45282 15.7979 6.96774H13.8721ZM13.6521 8.70968C13.3969 8.70968 13.189 8.51414 13.189 8.27419C13.189 8.03424 13.3969 7.83871 13.6521 7.83871H21.9887C22.2439 7.83871 22.4519 8.03424 22.4519 8.27419C22.4519 8.51414 22.2439 8.70968 21.9887 8.70968H13.6521ZM15.1911 16.5484L16.6732 20.0323H3.22071L4.70277 16.5484H15.1911ZM9.94695 15.6774C5.60544 15.6774 2.0735 12.3564 2.0735 8.27419C2.0735 4.19197 5.60544 0.870968 9.94695 0.870968C13.7892 0.870968 17.0257 3.46079 17.6875 6.96774H16.7394C16.0873 3.96421 13.2399 1.74194 9.94695 1.74194C6.11629 1.74194 2.99979 4.67231 2.99979 8.27419C2.99979 11.8761 6.11629 14.8065 9.94695 14.8065C13.2399 14.8065 16.0873 12.5842 16.7399 9.58065H17.6879C17.0257 13.0876 13.7892 15.6774 9.94695 15.6774ZM24.4624 10.0936L21.3324 10.4207L20.8855 9.58065H21.9887C22.7172 9.58065 23.3101 9.04892 23.367 8.3774L24.4624 10.0936ZM23.367 8.17098C23.3101 7.49947 22.7172 6.96774 21.9887 6.96774H20.8855L21.332 6.12769L24.4619 6.45474L23.367 8.17098ZM16.8941 25.2581H15.9678V24.3871H16.8941V25.2581ZM15.0415 25.2581H14.1153V24.3871H15.0415V25.2581ZM13.189 25.2581H12.2627V24.3871H13.189V25.2581ZM6.2418 18.2903H5.31551V17.4194H6.2418V18.2903ZM8.09437 18.2903H7.16809V17.4194H8.09437V18.2903ZM9.94695 18.2903H9.02066V17.4194H9.94695V18.2903Z" fill="url(#paint0_linear_450_12205)"/>
<defs>
<linearGradient id="paint0_linear_450_12205" x1="12.9995" y1="27" x2="12.9995" y2="0" gradientUnits="userSpaceOnUse">
<stop stop-color="#6739FF"/>
<stop offset="1" stop-color="#B9A4FF"/>
</linearGradient>
</defs>
</svg>
