<svg width="18" height="18" viewBox="0 0 18 18" fill="none" xmlns="http://www.w3.org/2000/svg">
<path d="M14.078 0.743164C13.4011 0.743164 12.8395 1.24555 12.7458 1.89701H15.4102C15.3166 1.24555 14.755 0.743164 14.078 0.743164Z" fill="#6739FF"/>
<path d="M14.4627 11.5C12.8722 11.5 11.5781 12.794 11.5781 14.3846C11.5781 15.9752 12.8722 17.2692 14.4627 17.2692C16.0452 17.2692 17.3336 15.9883 17.3467 14.4088C17.3467 14.4088 17.3467 14.4087 17.3467 14.4086C17.3468 14.4029 17.3469 14.3972 17.3472 14.3915L17.3474 14.3846C17.3474 12.794 16.0533 11.5 14.4627 11.5Z" fill="#6739FF"/>
<path d="M9.07804 0.743164C8.40108 0.743164 7.83946 1.24555 7.74585 1.89701H10.4102C10.3166 1.24555 9.755 0.743164 9.07804 0.743164Z" fill="#6739FF"/>
<path d="M4.07804 0.743164C3.40108 0.743164 2.83946 1.24555 2.74585 1.89701H5.41023C5.31662 1.24555 4.755 0.743164 4.07804 0.743164Z" fill="#6739FF"/>
<path d="M16.7832 2.28125H15.7982C15.7023 3.1454 14.9674 3.81971 14.0781 3.81971C13.9718 3.81971 13.8858 3.7336 13.8858 3.6274C13.8858 3.52121 13.9718 3.4351 14.0781 3.4351C14.7551 3.4351 15.3169 2.93275 15.4105 2.28125H10.7982C10.7023 3.1454 9.96741 3.81971 9.07807 3.81971C8.97184 3.81971 8.88576 3.7336 8.88576 3.6274C8.88576 3.52121 8.97184 3.4351 9.07807 3.4351C9.75507 3.4351 10.3169 2.93275 10.4105 2.28125H5.79822C5.70222 3.1454 4.96741 3.81971 4.07807 3.81971C3.97188 3.81971 3.88576 3.7336 3.88576 3.6274C3.88576 3.52121 3.97188 3.4351 4.07807 3.4351C4.75507 3.4351 5.31692 2.93275 5.41053 2.28125H1.37295C1.06191 2.28125 0.808838 2.53429 0.808838 2.84537V4.97356H17.3473V2.84537C17.3473 2.53433 17.0942 2.28125 16.7832 2.28125Z" fill="#6739FF"/>
<path d="M0.808838 14.3969C0.808838 14.7079 1.06191 14.961 1.37295 14.961H11.2455C11.2119 14.7736 11.1935 14.581 11.1935 14.3841C11.1935 12.5814 12.66 11.1148 14.4627 11.1148C15.7102 11.1148 16.7964 11.8175 17.3473 12.8476V5.3584H0.808838V14.3969ZM14.0781 7.26867H15.2319C15.3381 7.26867 15.4242 7.35478 15.4242 7.46098C15.4242 7.56717 15.3381 7.65328 15.2319 7.65328H14.0781C13.9718 7.65328 13.8858 7.56717 13.8858 7.46098C13.8858 7.35478 13.9718 7.26867 14.0781 7.26867ZM14.0781 9.57636H15.2319C15.3381 9.57636 15.4242 9.66244 15.4242 9.76867C15.4242 9.8749 15.3381 9.96098 15.2319 9.96098H14.0781C13.9718 9.96098 13.8858 9.8749 13.8858 9.76867C13.8858 9.66244 13.9718 9.57636 14.0781 9.57636ZM10.2319 7.26867H11.3858C11.492 7.26867 11.5781 7.35478 11.5781 7.46098C11.5781 7.56717 11.492 7.65328 11.3858 7.65328H10.2319C10.1257 7.65328 10.0396 7.56717 10.0396 7.46098C10.0396 7.35478 10.1257 7.26867 10.2319 7.26867ZM10.2319 9.57636H11.3858C11.492 9.57636 11.5781 9.66244 11.5781 9.76867C11.5781 9.8749 11.492 9.96098 11.3858 9.96098H10.2319C10.1257 9.96098 10.0396 9.8749 10.0396 9.76867C10.0396 9.66244 10.1257 9.57636 10.2319 9.57636ZM6.38576 7.26867H7.53961C7.6458 7.26867 7.73191 7.35478 7.73191 7.46098C7.73191 7.56717 7.6458 7.65328 7.53961 7.65328H6.38576C6.27957 7.65328 6.19345 7.56717 6.19345 7.46098C6.19345 7.35478 6.27957 7.26867 6.38576 7.26867ZM6.38576 9.57636H7.53961C7.6458 9.57636 7.73191 9.66244 7.73191 9.76867C7.73191 9.8749 7.6458 9.96098 7.53961 9.96098H6.38576C6.27957 9.96098 6.19345 9.8749 6.19345 9.76867C6.19345 9.66244 6.27957 9.57636 6.38576 9.57636ZM6.38576 11.8841H7.53961C7.6458 11.8841 7.73191 11.9701 7.73191 12.0764C7.73191 12.1826 7.6458 12.2687 7.53961 12.2687H6.38576C6.27957 12.2687 6.19345 12.1826 6.19345 12.0764C6.19345 11.9701 6.27957 11.8841 6.38576 11.8841ZM2.92422 7.26867H4.07807C4.18426 7.26867 4.27038 7.35478 4.27038 7.46098C4.27038 7.56717 4.18426 7.65328 4.07807 7.65328H2.92422C2.81803 7.65328 2.73191 7.56717 2.73191 7.46098C2.73191 7.35478 2.81803 7.26867 2.92422 7.26867ZM2.92422 9.57636H4.07807C4.18426 9.57636 4.27038 9.66244 4.27038 9.76867C4.27038 9.8749 4.18426 9.96098 4.07807 9.96098H2.92422C2.81803 9.96098 2.73191 9.8749 2.73191 9.76867C2.73191 9.66244 2.81803 9.57636 2.92422 9.57636ZM2.92422 11.8841H4.07807C4.18426 11.8841 4.27038 11.9701 4.27038 12.0764C4.27038 12.1826 4.18426 12.2687 4.07807 12.2687H2.92422C2.81803 12.2687 2.73191 12.1826 2.73191 12.0764C2.73191 11.9701 2.81803 11.8841 2.92422 11.8841Z" fill="#6739FF"/>
</svg>
