<svg width="24" height="24" viewBox="0 0 24 24" fill="none" xmlns="http://www.w3.org/2000/svg">
<g clip-path="url(#clip0_450_12206)">
<path d="M19.5591 0.9375V4.45312H15.8091C15.4208 4.45312 15.106 4.13831 15.106 3.75V1.64062C15.106 1.25231 15.4208 0.9375 15.8091 0.9375H19.5591ZM12.0005 14.1562H7.66455C7.27624 14.1562 6.96143 14.4711 6.96143 14.8594V17.4375L6.46924 23.2969H12.938L12.0005 14.1562ZM21.3755 7.59375H17.7427C17.3544 7.59375 17.0396 7.90856 17.0396 8.29688V10.875L16.5474 23.2969H22.0786V8.29688C22.0786 7.90856 21.7638 7.59375 21.3755 7.59375Z" fill="#6739FF"/>
<path d="M20.2622 7.59375H18.856V0.703125C18.856 0.314812 19.1708 0 19.5591 0C19.9474 0 20.2622 0.314812 20.2622 0.703125V7.59375ZM23.2974 22.5938H17.0396V10.875H12.7036C12.3153 10.875 12.0005 11.1898 12.0005 11.5781V22.5938H6.96143V17.4375H2.62549C2.23718 17.4375 1.92236 17.7523 1.92236 18.1406V22.5938H0.703613C0.315301 22.5938 0.000488281 22.9086 0.000488281 23.2969C0.000488281 23.6852 0.315301 24 0.703613 24H23.2974C23.6857 24 24.0005 23.6852 24.0005 23.2969C24.0005 22.9086 23.6857 22.5938 23.2974 22.5938Z" fill="#B9A4FF"/>
</g>
<defs>
<clipPath id="clip0_450_12206">
<rect width="24" height="24" fill="white"/>
</clipPath>
</defs>
</svg>
