<svg width="22" height="22" viewBox="0 0 22 22" fill="none" xmlns="http://www.w3.org/2000/svg">
<g clip-path="url(#clip0_280_1743)">
<path d="M20.1235 15.4245C19.8114 15.2531 19.4196 15.3671 19.2483 15.6791C19.0769 15.9911 19.1908 16.3829 19.5028 16.5543C20.2706 16.9761 20.7109 17.4437 20.7109 17.8372C20.7109 18.3185 20.029 19.0644 18.1151 19.7147C16.2242 20.3571 13.6974 20.7109 11 20.7109C8.30264 20.7109 5.77577 20.3571 3.88493 19.7147C1.97098 19.0644 1.28906 18.3185 1.28906 17.8372C1.28906 17.4437 1.72941 16.9761 2.49717 16.5543C2.80917 16.3829 2.92312 15.991 2.75172 15.679C2.58032 15.3671 2.18857 15.2531 1.87649 15.4245C1.02046 15.8948 0 16.6951 0 17.8372C0 18.7126 0.602078 19.9608 3.47024 20.9352C5.49115 21.6218 8.16527 21.9999 11 21.9999C13.8347 21.9999 16.5089 21.6218 18.5298 20.9352C21.3979 19.9608 22 18.7126 22 17.8372C22 16.6951 20.9795 15.8948 20.1235 15.4245Z" fill="#6739FF"/>
<path d="M6.13403 18.7832C7.44243 19.1528 9.17059 19.3564 11.0002 19.3564C12.8297 19.3564 14.5579 19.1529 15.8663 18.7832C17.467 18.3311 18.2786 17.6765 18.2786 16.8378C18.2786 15.9991 17.467 15.3446 15.8663 14.8924C15.5109 14.7921 15.1245 14.704 14.7136 14.6289C14.4905 15.0144 14.2567 15.4112 14.0122 15.8195C14.467 15.8877 14.894 15.9714 15.2817 16.0702C16.4598 16.3702 16.8901 16.708 16.9786 16.8378C16.8901 16.9677 16.4598 17.3055 15.2818 17.6055C14.1668 17.8895 12.7322 18.0515 11.2213 18.066C11.1481 18.0714 11.0744 18.0744 11.0002 18.0744C10.9259 18.0744 10.8522 18.0714 10.779 18.066C9.26804 18.0515 7.83349 17.8895 6.71849 17.6055C5.54046 17.3055 5.11013 16.9677 5.02166 16.8378C5.11013 16.708 5.5405 16.3702 6.71854 16.0702C7.10629 15.9714 7.53327 15.8877 7.98809 15.8195C7.74364 15.4113 7.50985 15.0144 7.28671 14.6289C6.87584 14.7041 6.48934 14.7921 6.13403 14.8924C4.53332 15.3446 3.72168 15.9991 3.72168 16.8378C3.72168 17.6765 4.53332 18.331 6.13403 18.7832Z" fill="#6739FF"/>
<path d="M10.9999 16.7851C11.5736 16.7851 12.0948 16.4927 12.3941 16.003C14.4914 12.5716 16.9914 8.04933 16.9914 5.99152C16.9914 2.68778 14.3036 0 10.9999 0C7.69608 0 5.0083 2.68778 5.0083 5.99152C5.0083 8.04933 7.50835 12.5716 9.60561 16.003C9.90493 16.4927 10.4261 16.7851 10.9999 16.7851ZM8.59159 5.58014C8.59159 4.25227 9.67196 3.17195 10.9999 3.17195C12.3278 3.17195 13.4081 4.25227 13.4081 5.58014C13.4081 6.90804 12.3278 7.98836 10.9999 7.98836C9.67196 7.98836 8.59159 6.90809 8.59159 5.58014Z" fill="#6739FF"/>
</g>
<defs>
<clipPath id="clip0_280_1743">
<rect width="22" height="22" fill="white"/>
</clipPath>
</defs>
</svg>
