<svg width="14" height="16" viewBox="0 0 14 16" fill="none" xmlns="http://www.w3.org/2000/svg">
<path fill-rule="evenodd" clip-rule="evenodd" d="M2.63387 6.59375V3.78125C0.904875 3.78125 0.886946 3.68328 0.886946 4.71875C0.886946 5.75422 1.66875 6.59375 2.63387 6.59375ZM11.3664 6.59375C12.3311 6.59375 13.1133 5.75422 13.1133 4.71875C13.1133 3.68328 13.0954 3.78125 11.3664 3.78125V6.59375ZM2.63387 2.84375C2.63387 1.80828 3.41569 0.96875 4.38038 0.96875H9.61988C10.5846 0.96875 11.3664 1.80828 11.3664 2.84375C14.3576 2.84375 13.9866 2.84328 13.9866 4.71875C13.9866 6.27172 12.8136 7.53125 11.3664 7.53125C11.2623 7.53125 11.1625 7.51343 11.0619 7.49843C10.4756 9.33781 9.09444 10.9948 7.43675 11.2475V14.0938H8.74663C8.98769 14.0938 9.18325 14.3033 9.18325 14.5625C9.18325 14.8217 8.98769 15.0312 8.74663 15.0312H5.25363C5.01256 15.0312 4.81701 14.8217 4.81701 14.5625C4.81701 14.3033 5.01256 14.0938 5.25363 14.0938H6.56351V11.2475C4.90582 10.9948 3.52463 9.33781 2.93794 7.49843C2.83775 7.51343 2.738 7.53125 2.63387 7.53125C1.18662 7.53125 0.0136948 6.27172 0.0136948 4.71875C0.0136948 2.84328 -0.357313 2.84375 2.63387 2.84375Z" fill="#6739FF"/>
</svg>
