<svg width="23" height="24" viewBox="0 0 23 24" fill="none" xmlns="http://www.w3.org/2000/svg">
<path d="M0.39743 16.8856L1.38293 18.5935C1.77598 19.272 2.42192 19.767 3.17926 19.9702C3.9366 20.1734 4.7436 20.0682 5.42349 19.6775L6.22865 19.2124C6.53724 19.4174 6.8585 19.6027 7.1905 19.7672V20.6955C7.1905 21.4797 7.50198 22.2317 8.05644 22.7861C8.61089 23.3406 9.36289 23.652 10.147 23.652H12.118C12.9021 23.652 13.6541 23.3406 14.2086 22.7861C14.763 22.2317 15.0745 21.4797 15.0745 20.6955V19.7672C15.4069 19.6018 15.7285 19.4155 16.0373 19.2094L16.8425 19.6746C17.1789 19.8689 17.5504 19.995 17.9356 20.0457C18.3208 20.0964 18.7122 20.0707 19.0875 19.97C19.4627 19.8693 19.8145 19.6957 20.1226 19.459C20.4307 19.2223 20.6891 18.9272 20.8831 18.5905L21.8686 16.8826C22.0629 16.5462 22.189 16.1748 22.2397 15.7896C22.2904 15.4043 22.2647 15.0129 22.164 14.6377C22.0633 14.2624 21.8897 13.9107 21.653 13.6026C21.4163 13.2945 21.1212 13.036 20.7845 12.8421L19.9813 12.3779C20.0089 12.0072 20.0089 11.635 19.9813 11.2643L20.7845 10.8001C21.1212 10.6061 21.4163 10.3477 21.653 10.0396C21.8897 9.73152 22.0633 9.37979 22.164 9.00453C22.2647 8.62927 22.2904 8.23784 22.2397 7.85264C22.189 7.46743 22.0629 7.09599 21.8686 6.75956L20.8831 5.05168C20.49 4.37318 19.8441 3.87812 19.0867 3.67493C18.3294 3.47174 17.5224 3.57699 16.8425 3.96763L16.0373 4.43279C15.7283 4.23006 15.4067 4.04705 15.0745 3.88485V2.95651C15.0745 2.17239 14.763 1.42039 14.2086 0.865941C13.6541 0.311488 12.9021 0 12.118 0L10.147 0C9.36289 0 8.61089 0.311488 8.05644 0.865941C7.50198 1.42039 7.1905 2.17239 7.1905 2.95651V3.88485C6.85808 4.05024 6.53649 4.23655 6.22766 4.44264L5.4225 3.97749C4.74261 3.58685 3.93561 3.48159 3.17827 3.68478C2.42093 3.88797 1.77499 4.38304 1.38195 5.06154L0.396444 6.76941C0.2021 7.10584 0.0759739 7.47728 0.025277 7.86249C-0.02542 8.2477 0.000306655 8.63912 0.100986 9.01438C0.201665 9.38964 0.375323 9.74138 0.612029 10.0495C0.848736 10.3576 1.14385 10.616 1.4805 10.81L2.28368 11.2741C2.25609 11.6448 2.25609 12.0171 2.28368 12.3878L1.4805 12.8519C0.802635 13.2438 0.307909 13.8886 0.104863 14.6448C-0.0981834 15.401 0.00703403 16.2069 0.39743 16.8856ZM2.46698 14.5539L3.82599 13.7655C3.99512 13.6676 4.13133 13.5217 4.21731 13.3462C4.3033 13.1707 4.33517 12.9736 4.30889 12.78C4.22315 12.1462 4.22315 11.5038 4.30889 10.8701C4.33517 10.6765 4.3033 10.4794 4.21731 10.3039C4.13133 10.1284 3.99512 9.98247 3.82599 9.88458L2.46698 9.09618C2.24101 8.96566 2.07602 8.75085 2.00822 8.49885C1.94042 8.24685 1.97533 7.97825 2.1053 7.75196L3.09081 6.04507C3.2215 5.81873 3.43675 5.65357 3.6892 5.58592C3.94166 5.51828 4.21065 5.5537 4.437 5.68438L5.79502 6.47278C5.96561 6.57035 6.16147 6.6147 6.35745 6.60013C6.55343 6.58555 6.74057 6.51272 6.89484 6.39098C7.39799 5.99691 7.95356 5.67485 8.54556 5.43406C8.72754 5.36044 8.88339 5.23416 8.99313 5.0714C9.10287 4.90863 9.1615 4.7168 9.1615 4.5205V2.95651C9.1615 2.69513 9.26533 2.44447 9.45015 2.25965C9.63496 2.07483 9.88563 1.971 10.147 1.971H12.118C12.3794 1.971 12.63 2.07483 12.8149 2.25965C12.9997 2.44447 13.1035 2.69513 13.1035 2.95651V4.5205C13.1035 4.7168 13.1621 4.90863 13.2719 5.0714C13.3816 5.23416 13.5375 5.36044 13.7194 5.43406C14.3114 5.67485 14.867 5.99691 15.3702 6.39098C15.5249 6.51195 15.7123 6.5839 15.9083 6.5976C16.1043 6.6113 16.2999 6.56611 16.47 6.46785L17.828 5.68438C18.0544 5.5537 18.3233 5.51828 18.5758 5.58592C18.8283 5.65357 19.0435 5.81873 19.1742 6.04507L20.1597 7.75196C20.2904 7.97831 20.3258 8.2473 20.2582 8.49976C20.1905 8.75222 20.0254 8.96746 19.799 9.09815L18.44 9.88655C18.2709 9.98444 18.1347 10.1304 18.0487 10.3059C17.9627 10.4813 17.9308 10.6784 17.9571 10.8721C18.0034 11.188 18.0281 11.5067 18.031 11.826C18.0281 12.1457 18.0034 12.4647 17.9571 12.781C17.9308 12.9746 17.9627 13.1717 18.0487 13.3472C18.1347 13.5226 18.2709 13.6686 18.44 13.7665L19.799 14.5549C20.0254 14.6856 20.1905 14.9008 20.2582 15.1533C20.3258 15.4057 20.2904 15.6747 20.1597 15.9011L19.1742 17.608C19.0435 17.8343 18.8283 17.9995 18.5758 18.0671C18.3233 18.1348 18.0544 18.0993 17.828 17.9687L16.47 17.1852C16.2999 17.0869 16.1043 17.0417 15.9083 17.0554C15.7123 17.0691 15.5249 17.1411 15.3702 17.2621C14.867 17.6561 14.3114 17.9782 13.7194 18.219C13.5375 18.2926 13.3816 18.4189 13.2719 18.5816C13.1621 18.7444 13.1035 18.9362 13.1035 19.1325V20.6955C13.1035 20.9569 12.9997 21.2076 12.8149 21.3924C12.63 21.5772 12.3794 21.681 12.118 21.681H10.147C9.88563 21.681 9.63496 21.5772 9.45015 21.3924C9.26533 21.2076 9.1615 20.9569 9.1615 20.6955V19.1315C9.1615 18.9352 9.10287 18.7434 8.99313 18.5807C8.88339 18.4179 8.72754 18.2916 8.54556 18.218C7.95356 17.9772 7.39799 17.6551 6.89484 17.2611C6.73785 17.1449 6.55096 17.076 6.35614 17.0623C6.16131 17.0487 5.96665 17.091 5.79502 17.1842L4.437 17.9677C4.21065 18.0984 3.94166 18.1338 3.6892 18.0661C3.43675 17.9985 3.2215 17.8333 3.09081 17.607L2.1053 15.9001C1.97462 15.6737 1.93921 15.4047 2.00685 15.1523C2.0745 14.8998 2.24064 14.6846 2.46698 14.5539Z" fill="#997AFF"/>
<path d="M11.1326 16.7535C12.1072 16.7535 13.0598 16.4645 13.8702 15.923C14.6805 15.3816 15.3121 14.612 15.685 13.7116C16.058 12.8112 16.1555 11.8205 15.9654 10.8646C15.7753 9.9088 15.306 9.0308 14.6169 8.34167C13.9277 7.65255 13.0497 7.18325 12.0939 6.99312C11.1381 6.80299 10.1473 6.90057 9.24691 7.27352C8.34653 7.64648 7.57696 8.27805 7.03551 9.08837C6.49407 9.8987 6.20508 10.8514 6.20508 11.826C6.20664 13.1323 6.72629 14.3847 7.65004 15.3085C8.57379 16.2322 9.82621 16.7519 11.1326 16.7535ZM11.1326 8.86944C11.7173 8.86944 12.2889 9.04284 12.7751 9.36771C13.2613 9.69257 13.6403 10.1543 13.864 10.6945C14.0878 11.2348 14.1464 11.8292 14.0323 12.4027C13.9182 12.9762 13.6366 13.503 13.2232 13.9165C12.8097 14.33 12.2829 14.6116 11.7094 14.7256C11.1359 14.8397 10.5414 14.7812 10.0012 14.5574C9.46095 14.3336 8.99921 13.9547 8.67434 13.4685C8.34948 12.9823 8.17608 12.4107 8.17608 11.826C8.17608 11.0418 8.48757 10.2898 9.04202 9.73538C9.59647 9.18093 10.3485 8.86944 11.1326 8.86944Z" fill="#997AFF"/>
</svg>
