<svg width="19" height="20" viewBox="0 0 19 20" fill="none" xmlns="http://www.w3.org/2000/svg">
<g clip-path="url(#clip0_903_4516)">
<path d="M15.2551 6.15587L16.3927 5.01824L15.2733 3.89843L14.0563 5.11542C12.9446 4.32754 11.6472 3.84197 10.2913 3.70625V2.08333H11.8747V0.5H7.12468V2.08333H8.70801V3.70625C7.35216 3.84197 6.05481 4.32754 4.94304 5.11542L3.72605 3.89843L2.60664 5.01824L3.74426 6.15587C2.68236 7.28019 1.97302 8.69093 1.70385 10.2138C1.43467 11.7368 1.61745 13.3052 2.22961 14.7254C2.84178 16.1456 3.85651 17.3554 5.1485 18.2054C6.44049 19.0554 7.95315 19.5084 9.49968 19.5084C11.0462 19.5084 12.5589 19.0554 13.8509 18.2054C15.1428 17.3554 16.1576 16.1456 16.7697 14.7254C17.3819 13.3052 17.5647 11.7368 17.2955 10.2138C17.0263 8.69093 16.317 7.28019 15.2551 6.15587ZM9.49968 17.9167C8.24706 17.9167 7.02258 17.5452 5.98107 16.8493C4.93956 16.1534 4.1278 15.1643 3.64844 14.007C3.16909 12.8497 3.04367 11.5763 3.28804 10.3478C3.53241 9.11922 4.1356 7.99072 5.02134 7.10499C5.90707 6.21926 7.03556 5.61607 8.26411 5.37169C9.49265 5.12732 10.7661 5.25274 11.9233 5.7321C13.0806 6.21145 14.0697 7.02321 14.7657 8.06472C15.4616 9.10623 15.833 10.3307 15.833 11.5833C15.8311 13.2625 15.1633 14.8723 13.9759 16.0596C12.7886 17.2469 11.1788 17.9148 9.49968 17.9167Z" fill="#6739FF"/>
<path d="M9.49902 6.83301V11.583H4.74902C4.74902 12.5225 5.02761 13.4408 5.54954 14.222C6.07148 15.0031 6.81333 15.6119 7.68128 15.9714C8.54923 16.331 9.50429 16.425 10.4257 16.2417C11.3471 16.0585 12.1935 15.6061 12.8578 14.9418C13.5221 14.2775 13.9745 13.4311 14.1578 12.5097C14.341 11.5883 14.247 10.6332 13.8875 9.76526C13.5279 8.89731 12.9191 8.15546 12.138 7.63353C11.3568 7.11159 10.4385 6.83301 9.49902 6.83301Z" fill="#6739FF"/>
</g>
<defs>
<clipPath id="clip0_903_4516">
<rect width="19" height="19" fill="white" transform="translate(0 0.5)"/>
</clipPath>
</defs>
</svg>
