<svg width="17" height="19" viewBox="0 0 17 19" fill="none" xmlns="http://www.w3.org/2000/svg">
<path d="M14.2551 5.65587L15.3927 4.51824L14.2733 3.39843L13.0563 4.61542C11.9446 3.82754 10.6472 3.34197 9.29135 3.20625V1.58333H10.8747V0H6.12468V1.58333H7.70801V3.20625C6.35216 3.34197 5.05481 3.82754 3.94304 4.61542L2.72605 3.39843L1.60664 4.51824L2.74426 5.65587C1.68236 6.78019 0.973019 8.19093 0.703846 9.71385C0.434672 11.2368 0.617453 12.8052 1.22961 14.2254C1.84178 15.6456 2.85651 16.8554 4.1485 17.7054C5.44049 18.5554 6.95315 19.0084 8.49968 19.0084C10.0462 19.0084 11.5589 18.5554 12.8509 17.7054C14.1428 16.8554 15.1576 15.6456 15.7697 14.2254C16.3819 12.8052 16.5647 11.2368 16.2955 9.71385C16.0263 8.19093 15.317 6.78019 14.2551 5.65587ZM8.49968 17.4167C7.24706 17.4167 6.02258 17.0452 4.98107 16.3493C3.93956 15.6534 3.1278 14.6643 2.64844 13.507C2.16909 12.3497 2.04367 11.0763 2.28804 9.84776C2.53241 8.61922 3.1356 7.49072 4.02134 6.60499C4.90707 5.71926 6.03556 5.11607 7.26411 4.87169C8.49265 4.62732 9.76608 4.75274 10.9233 5.2321C12.0806 5.71145 13.0697 6.52321 13.7657 7.56472C14.4616 8.60623 14.833 9.83072 14.833 11.0833C14.8311 12.7625 14.1633 14.3723 12.9759 15.5596C11.7886 16.7469 10.1788 17.4148 8.49968 17.4167Z" fill="#6739FF"/>
<path d="M8.49902 6.33301V11.083H3.74902C3.74902 12.0225 4.02761 12.9408 4.54954 13.722C5.07148 14.5031 5.81333 15.1119 6.68128 15.4714C7.54923 15.831 8.50429 15.925 9.4257 15.7417C10.3471 15.5585 11.1935 15.1061 11.8578 14.4418C12.5221 13.7775 12.9745 12.9311 13.1578 12.0097C13.341 11.0883 13.247 10.1332 12.8875 9.26526C12.5279 8.39731 11.9191 7.65546 11.138 7.13353C10.3568 6.61159 9.43848 6.33301 8.49902 6.33301Z" fill="#6739FF"/>
</svg>
