<svg width="18" height="18" viewBox="0 0 18 18" fill="none" xmlns="http://www.w3.org/2000/svg">
<path d="M17.7187 5.09899C17.8989 4.91785 18 4.67272 18 4.4172C18 4.16168 17.8989 3.91655 17.7187 3.7354L14.2595 0.274973C14.0765 0.0985612 13.8322 0 13.578 0C13.3238 0 13.0795 0.0985612 12.8964 0.274973L12.5106 0.660895L17.3329 5.48491L17.7187 5.09899ZM8.5885 3.08577C8.40897 2.90429 8.30827 2.65929 8.30827 2.40397C8.30828 2.14865 8.40898 1.90365 8.58852 1.72218L9.94519 0.365022C10.126 0.18432 10.3712 0.082819 10.6267 0.082819C10.8823 0.082819 11.1275 0.18432 11.3083 0.365022L17.6287 6.68771C17.8093 6.86859 17.9108 7.11382 17.9108 7.3695C17.9108 7.62518 17.8093 7.87041 17.6287 8.05129L16.272 9.40845C16.0906 9.58804 15.8457 9.68878 15.5905 9.68878C15.3353 9.68878 15.0903 9.58804 14.9089 9.40845C14.9089 9.40845 8.92359 3.42117 8.5885 3.08577ZM5.22253 9.81366L9.81336 5.2212C9.81336 5.2212 12.4877 7.89051 12.771 8.18315C12.7818 8.17861 8.18503 12.7769 8.18342 12.7724C7.56695 12.15 5.84406 10.431 5.22253 9.81366ZM0.281279 12.8946L0.667063 12.5087L5.48937 17.3327L5.10358 17.7186C4.9225 17.8988 4.67746 18 4.42203 18C4.1666 18 3.92156 17.8988 3.74048 17.7186L0.281279 14.2582C0.10113 14.077 0 13.8319 0 13.5764C0 13.3209 0.10113 13.0758 0.281279 12.8946ZM0.371294 9.94231L1.72797 8.58515C1.91178 8.41018 2.15579 8.3126 2.40952 8.3126C2.66325 8.3126 2.90726 8.41018 3.09107 8.58515C3.09107 8.58515 8.07155 13.5737 9.4115 14.9078C9.59103 15.0893 9.69173 15.3343 9.69173 15.5896C9.69172 15.8449 9.59102 16.0899 9.41148 16.2714L8.05481 17.6286C7.87403 17.8094 7.62887 17.9109 7.37326 17.9109C7.11764 17.9109 6.87249 17.8094 6.69171 17.6286L0.371275 11.3059C0.190641 11.125 0.08918 10.8798 0.0891838 10.6241C0.0891876 10.3684 0.190657 10.1232 0.371294 9.94231Z" fill="url(#paint0_linear_291_1966)"/>
<defs>
<linearGradient id="paint0_linear_291_1966" x1="18" y1="8.99986" x2="-2.21842e-05" y2="8.99986" gradientUnits="userSpaceOnUse">
<stop stop-color="#8561FF"/>
<stop offset="1" stop-color="#5558FF"/>
</linearGradient>
</defs>
</svg>
