<svg width="27" height="28" viewBox="0 0 27 28" fill="none" xmlns="http://www.w3.org/2000/svg">
<g clip-path="url(#clip0_450_12169)">
<path d="M13.4995 0C9.57402 0 6.38037 3.20741 6.38037 7.14983C6.38037 11.0922 9.57402 14.2997 13.4995 14.2997C17.425 14.2997 20.6187 11.0922 20.6187 7.14983C20.6187 3.20741 17.425 0 13.4995 0Z" fill="#997AFF"/>
<path d="M22.361 18.9708C20.4119 16.9832 17.8281 15.8887 15.0854 15.8887H11.9214C9.17878 15.8887 6.5949 16.9832 4.64584 18.9708C2.70632 20.9486 1.63818 23.5593 1.63818 26.3221C1.63818 26.7609 1.99235 27.1165 2.4292 27.1165H24.5776C25.0145 27.1165 25.3687 26.7609 25.3687 26.3221C25.3687 23.5593 24.3005 20.9486 22.361 18.9708Z" fill="#997AFF"/>
</g>
<defs>
<clipPath id="clip0_450_12169">
<rect width="27" height="27.1164" fill="white"/>
</clipPath>
</defs>
</svg>
