<svg width="21" height="22" viewBox="0 0 21 22" fill="none" xmlns="http://www.w3.org/2000/svg">
<path d="M20.6694 14.385L19.7913 13.507L19.8247 13.4736C20.076 13.2223 20.2139 12.8876 20.2139 12.5308C20.2139 12.1739 20.0755 11.8392 19.8247 11.5879L19.0466 10.8098C18.5268 10.29 17.6811 10.29 17.1613 10.8098L15.4265 12.5447L14.928 12.0461C15.0265 11.9948 15.1196 11.9309 15.2038 11.854L15.557 11.531C15.8111 11.2986 15.9597 10.9801 15.975 10.6344C15.9902 10.2886 15.8708 9.9586 15.6385 9.70448C15.4144 9.45962 15.1163 9.32215 14.8095 9.29252C14.8483 8.93519 14.741 8.56396 14.4799 8.27837C14.2887 8.06916 14.0439 7.93909 13.7856 7.88632C13.7865 7.87244 13.7888 7.85901 13.7893 7.84559C13.8046 7.49983 13.6851 7.1698 13.4528 6.91569C13.2204 6.66157 12.902 6.51299 12.5562 6.49771C12.4863 6.49447 12.4173 6.49864 12.3488 6.50604C12.3151 6.24452 12.2035 6.00013 12.0225 5.80202C11.5411 5.2762 10.7219 5.23963 10.196 5.72102L9.80352 6.0802C9.64985 6.22045 9.53598 6.39264 9.46562 6.58288L8.45333 5.57058L10.1882 3.83575C10.4395 3.58441 10.5774 3.24975 10.5774 2.89288C10.5774 2.53601 10.439 2.20135 10.1882 1.95001L9.41008 1.17193C9.15874 0.920591 8.82409 0.782654 8.46721 0.782654C8.11034 0.782654 7.77568 0.921054 7.52435 1.17193L7.49102 1.20525L6.61295 0.327191C6.17647 -0.108832 5.46642 -0.109295 5.0304 0.327191L4.1204 1.23719L3.77787 0.894671C3.50663 0.623429 3.06598 0.623429 2.79474 0.894671L1.77318 1.91623C1.5024 2.187 1.5024 2.62812 1.77318 2.89936L2.11571 3.24189L1.2057 4.15188C0.994636 4.36295 0.878918 4.64392 0.878918 4.9434C0.878918 5.24287 0.995098 5.52384 1.2057 5.7349L2.08377 6.61297L2.05044 6.64629C1.7991 6.89763 1.66117 7.23229 1.66117 7.58916C1.66117 7.94603 1.79957 8.28069 2.05044 8.53203L2.82853 9.31011C3.07987 9.56145 3.41452 9.69939 3.77139 9.69939C4.12827 9.69939 4.46292 9.56099 4.71426 9.31011L6.4491 7.57528L6.86429 7.99047C6.84531 8.01037 6.82587 8.03027 6.80782 8.0511L5.76775 9.26244C5.60482 9.45268 5.48633 9.68226 5.42523 9.92712L4.80684 12.4081C4.78647 12.4748 4.77119 12.5419 4.7587 12.609L0.10361 18.1005C-0.0523768 18.2842 -0.0296958 18.5601 0.154527 18.7156C0.236455 18.7851 0.336897 18.8193 0.436414 18.8193C0.560463 18.8193 0.683124 18.767 0.769681 18.6652L5.50438 13.0797C5.50669 13.0774 5.50762 13.0742 5.50993 13.0719C5.52151 13.058 5.53123 13.0427 5.54095 13.027C5.54604 13.0186 5.55252 13.0103 5.55715 13.0015C5.56548 12.9862 5.5715 12.97 5.57751 12.9534C5.58122 12.9436 5.58631 12.9344 5.58909 12.9242C5.59325 12.9103 5.5951 12.896 5.59788 12.8816C5.60066 12.8682 5.60436 12.8552 5.60575 12.8418C5.60575 12.8409 5.60575 12.84 5.60621 12.839C5.61223 12.7793 5.62473 12.7182 5.64417 12.6576L6.27321 10.1377C6.30191 10.0239 6.35652 9.91693 6.43151 9.82945L7.47158 8.61812C7.53268 8.54684 7.61368 8.49731 7.70625 8.47509L8.39269 8.30985C8.53294 8.27652 8.67597 8.31031 8.78613 8.40381C8.85371 8.46121 8.90231 8.53666 8.92684 8.62229C8.99072 8.84447 8.87593 9.07544 8.65977 9.16014L8.16681 9.35408C7.778 9.50637 7.48176 9.83778 7.37345 10.2419L6.89854 12.0174C6.83606 12.2503 6.97446 12.4896 7.20728 12.5521C7.44057 12.6145 7.67941 12.4761 7.74189 12.2433L8.2168 10.4682C8.25337 10.3317 8.35381 10.2192 8.48619 10.1673L8.88565 10.01L11.9665 13.0908L11.2741 13.8495C10.8644 14.298 10.389 14.678 9.86138 14.9789L9.5818 15.1381C9.3749 15.2311 9.15689 15.289 8.93332 15.3098C8.92268 15.3108 8.91249 15.314 8.90185 15.3159C8.88472 15.3186 8.86806 15.3209 8.85139 15.3256C8.83751 15.3297 8.82455 15.3358 8.81159 15.3413C8.79863 15.3464 8.7852 15.351 8.77271 15.3575C8.75882 15.3645 8.74679 15.3737 8.73383 15.382C8.72272 15.3894 8.71161 15.3955 8.70142 15.4038C8.68661 15.4158 8.67365 15.4293 8.66069 15.4431C8.65421 15.4496 8.64727 15.4552 8.64079 15.4621L3.77 21.2077C3.61402 21.3915 3.6367 21.6674 3.82092 21.8233C3.90285 21.8928 4.00329 21.927 4.10281 21.927C4.22686 21.927 4.34952 21.8747 4.43608 21.7729L9.19762 16.156C9.46146 16.1143 9.71835 16.037 9.96321 15.9241L10.2937 15.7375C10.901 15.3913 11.4476 14.9544 11.9188 14.4383L12.5849 13.7088L13.4241 14.548L11.6893 16.2828C11.1694 16.8026 11.1694 17.6483 11.6893 18.1681L12.4673 18.9461C12.727 19.2058 13.0686 19.3359 13.4102 19.3359C13.7518 19.3359 14.0929 19.2058 14.3531 18.9461L14.3869 18.9124L15.2649 19.7904C15.4755 20.0015 15.757 20.1172 16.0564 20.1172C16.3559 20.1172 16.6369 20.001 16.8479 19.7904L17.7579 18.8804L18.1005 19.2229C18.2361 19.3586 18.4138 19.4261 18.592 19.4261C18.7702 19.4261 18.948 19.3586 19.0836 19.2229L20.1052 18.2014C20.3759 17.9306 20.3759 17.4895 20.1052 17.2187L19.7626 16.8762L20.6726 15.9662C21.1091 15.5297 21.1091 14.8197 20.6726 14.3836L20.6694 14.385ZM14.4012 10.2673C14.4817 10.1937 14.5831 10.1576 14.6845 10.1576C14.7984 10.1576 14.9118 10.2035 14.9941 10.2937C15.0691 10.3756 15.1075 10.483 15.1029 10.5955C15.0978 10.708 15.0502 10.8117 14.9682 10.8866L14.6151 11.2097C14.5331 11.2847 14.4248 11.3227 14.3133 11.3185C14.2008 11.3134 14.0971 11.2657 14.0221 11.1838C13.8661 11.013 13.8777 10.7469 14.0485 10.5909L14.4017 10.2678L14.4012 10.2673ZM13.5259 8.73153C13.6398 8.73153 13.7532 8.77735 13.8356 8.86761C13.9916 9.03841 13.98 9.30456 13.8092 9.46055L13.4435 9.7952C13.3616 9.87018 13.2538 9.9086 13.1417 9.90397C13.0293 9.89888 12.9256 9.85121 12.8506 9.76882C12.7756 9.68689 12.7372 9.5795 12.7418 9.46703C12.7469 9.35455 12.7946 9.25086 12.877 9.17588L13.2426 8.84123C13.3232 8.76763 13.4246 8.73153 13.5259 8.73153ZM12.2155 7.47853C12.2928 7.40771 12.3924 7.36976 12.4979 7.36976C12.5044 7.36976 12.5108 7.36976 12.5173 7.36976C12.6298 7.37485 12.7335 7.42253 12.8085 7.50446C12.8835 7.58638 12.9219 7.69377 12.9172 7.80625C12.9122 7.91595 12.8663 8.01639 12.7881 8.09091C12.7418 8.12332 12.6965 8.15756 12.6539 8.19691L12.2882 8.53156C12.2442 8.57183 12.2044 8.61534 12.1669 8.6607L11.9489 8.8602C11.7781 9.01619 11.512 9.00462 11.356 8.83382C11.281 8.75189 11.2426 8.6445 11.2472 8.53203C11.2523 8.41955 11.3 8.31587 11.3819 8.24088L12.2155 7.47807V7.47853ZM10.3928 6.72452L10.7853 6.36533C10.8658 6.29174 10.9672 6.25563 11.0685 6.25563C11.1824 6.25563 11.2958 6.30145 11.3782 6.39171C11.4532 6.47364 11.4916 6.58103 11.487 6.69351C11.4819 6.80598 11.4342 6.90967 11.3518 6.98465L10.9593 7.34384C10.7885 7.49983 10.5228 7.48825 10.3664 7.31745C10.2914 7.23553 10.253 7.12814 10.2576 7.01566C10.2627 6.90318 10.3104 6.79951 10.3928 6.72452ZM3.28584 1.6385L3.49506 1.84772L2.72531 2.61747L2.51609 2.40826L3.28584 1.6385ZM1.82317 5.11743C1.77735 5.07161 1.75189 5.00959 1.75189 4.9434C1.75189 4.87721 1.77735 4.81518 1.82317 4.76936L5.64741 0.945122C5.69462 0.897909 5.75803 0.874304 5.82145 0.874304C5.88486 0.874304 5.94827 0.897909 5.99549 0.945122L6.87355 1.82319L2.70124 5.9955L1.82317 5.11743ZM4.09633 8.69265C4.01024 8.77874 3.89452 8.82641 3.77093 8.82641C3.64735 8.82641 3.53209 8.7792 3.44553 8.69265L2.66745 7.91456C2.58135 7.82846 2.53368 7.71275 2.53368 7.58916C2.53368 7.46557 2.58135 7.34986 2.66745 7.26377L2.70078 7.23043L5.4044 4.52681L8.14135 1.78986C8.22744 1.70377 8.34316 1.65609 8.46675 1.65609C8.59033 1.65609 8.70559 1.7033 8.79215 1.78986L9.57023 2.56794C9.65632 2.65404 9.704 2.76976 9.704 2.89334C9.704 3.01693 9.65632 3.13265 9.57023 3.21874L4.09587 8.6931L4.09633 8.69265ZM9.59152 9.48323C9.80259 9.17079 9.87712 8.77272 9.7651 8.38298C9.69289 8.13072 9.5494 7.90808 9.34991 7.73867C9.0296 7.46742 8.59543 7.3642 8.18764 7.46187L7.69052 7.58176L7.16007 7.0513L7.92982 6.28155L10.3881 8.73985C10.4247 8.99397 10.5358 9.2305 10.7121 9.42351C10.9204 9.65078 11.1917 9.78501 11.4754 9.82714L13.2445 11.5962C13.2838 11.6578 13.3278 11.717 13.3787 11.773C13.456 11.8573 13.543 11.9286 13.637 11.9887L14.8104 13.1621L14.0406 13.9319L9.59199 9.48323H9.59152ZM13.7675 18.2967L13.7342 18.3305C13.5546 18.5101 13.263 18.5097 13.0834 18.3305L12.3053 17.5524C12.1257 17.3728 12.1257 17.0812 12.3053 16.9016L14.0402 15.1668L16.0449 13.1626L17.7797 11.4277C17.8695 11.3379 17.9871 11.293 18.1051 11.293C18.2231 11.293 18.3407 11.3379 18.4305 11.4277L19.2086 12.2058C19.2947 12.2919 19.3423 12.4076 19.3423 12.5312C19.3423 12.6548 19.2947 12.7705 19.2086 12.8566L17.3765 14.6887L13.768 18.2972L13.7675 18.2967ZM18.5897 18.4814L18.3805 18.2722L19.1503 17.5025L19.3595 17.7117L18.5897 18.4814ZM20.0524 15.3506L16.2282 19.1748C16.1337 19.2692 15.9745 19.2692 15.8801 19.1748L15.002 18.2967L16.3328 16.966L19.1743 14.1249L20.0524 15.003C20.1468 15.0974 20.1468 15.2566 20.0524 15.351V15.3506Z" fill="white"/>
</svg>
