<svg width="23" height="20" viewBox="0 0 23 20" fill="none" xmlns="http://www.w3.org/2000/svg">
<path d="M19.1016 14.0088C18.8601 13.88 18.567 13.9865 18.4474 14.2467C18.0156 15.1864 17.4284 16.0598 16.7015 16.8431C16.6602 16.8876 16.6188 16.9311 16.577 16.9746L16.5348 17.0185C14.0324 19.5905 10.1126 19.5905 7.61066 17.0185L7.56787 16.974C7.52656 16.9311 7.48524 16.8876 7.44393 16.8431C6.92801 16.2872 6.4775 15.6782 6.1052 15.0332C5.96306 14.7863 5.66158 14.711 5.43288 14.8647C5.20418 15.0184 5.13384 15.3427 5.27647 15.5892C5.68862 16.3025 6.18536 16.9745 6.7539 17.5872C6.79964 17.6365 6.84538 17.6853 6.89112 17.7319L6.93735 17.7796C8.3774 19.2598 10.2257 19.9997 12.0734 19.9997C13.9212 19.9997 15.77 19.2593 17.21 17.7791L17.2553 17.7319C17.301 17.6842 17.3467 17.636 17.393 17.5867C18.1951 16.7223 18.8443 15.7556 19.3234 14.7131C19.4429 14.4529 19.344 14.137 19.1025 14.0082L19.1016 14.0088Z" fill="#FDFDFD"/>
<path d="M4.44033 11.383C4.44427 11.383 4.4482 11.383 4.45263 11.383C4.71673 11.383 4.93413 11.1556 4.94052 10.87C4.96757 9.68281 5.33987 8.66895 6.0176 7.93864C7.24617 6.61527 9.33445 6.40593 11.4675 7.39223C11.6573 7.47967 11.8604 7.52419 12.0645 7.52525C12.0675 7.52525 12.07 7.52631 12.0729 7.52631C12.0759 7.52631 12.0788 7.52525 12.0818 7.52525C12.2854 7.52419 12.489 7.4802 12.6783 7.39223C14.8114 6.40593 16.8996 6.61527 18.1277 7.93864C18.7169 8.57409 19.0804 9.43743 19.1787 10.4349C19.2073 10.7237 19.4487 10.9341 19.7158 10.9023C19.9838 10.8716 20.1781 10.6124 20.1496 10.3236C20.0276 9.08393 19.5673 8.0017 18.8177 7.19401C17.3477 5.61095 14.9545 5.28501 12.5264 6.32113C12.5121 6.1563 12.4924 5.96657 12.4644 5.75935C13.2764 5.73656 14.6555 5.53835 15.5786 4.54357C16.547 3.50003 16.7024 1.91432 16.7093 1.06211C16.7113 0.777505 16.61 0.509865 16.4231 0.308471C16.2362 0.107077 15.9908 -0.00157274 15.7237 1.7205e-05C14.9328 0.00690699 13.4613 0.174911 12.4929 1.21845C12.0498 1.69596 11.7783 2.28636 11.6121 2.86829C11.2201 2.1067 10.6658 1.41083 9.88283 0.960877C9.64479 0.824141 9.34921 0.921133 9.22232 1.17764C9.09543 1.43416 9.18542 1.75267 9.42346 1.88941C10.9899 2.78985 11.4207 5.10906 11.5393 6.28827C9.13821 5.29296 6.7814 5.62791 5.32709 7.19401C4.46886 8.11936 3.9977 9.38125 3.96425 10.8435C3.95786 11.1339 4.17081 11.375 4.44033 11.3825V11.383ZM13.1829 1.96308C13.9054 1.18453 15.0897 1.05892 15.7325 1.05415C15.7271 1.74578 15.6106 3.02199 14.8881 3.80053C14.1656 4.57908 12.9813 4.70468 12.3385 4.70945C12.3439 4.01782 12.4605 2.74162 13.1829 1.96308Z" fill="#FDFDFD"/>
<path d="M22.0036 11.5945C21.6229 11.5945 21.2924 11.825 21.1252 12.1642H17.681L16.7898 10.4715C16.7022 10.3061 16.5385 10.2001 16.3614 10.1959C16.1824 10.1911 16.0161 10.2886 15.9217 10.4492L14.9115 12.1642H13.919C13.7272 12.1642 13.5487 12.275 13.4523 12.4541L12.3875 14.4373L11.2347 10.0427C11.1781 9.827 11.0178 9.65794 10.8166 9.60123C10.6155 9.54505 10.3986 9.60812 10.2515 9.76658L10.2176 9.80315L8.63146 12.3518L8.0157 11.7667C7.82733 11.5881 7.55043 11.5834 7.35665 11.7567L6.3976 12.6174H1.88268C1.7189 12.2676 1.38349 12.0275 0.994953 12.0275C0.445589 12.0275 0 12.5077 0 13.0996C0 13.6916 0.445589 14.1718 0.994953 14.1718C1.35005 14.1718 1.66038 13.9709 1.83645 13.6699H6.55596C6.68138 13.6699 6.80384 13.6222 6.90122 13.5353L7.67241 12.8431L8.36046 13.4971C8.47703 13.6079 8.63194 13.6588 8.78638 13.6376C8.94032 13.6159 9.07852 13.5242 9.16508 13.3848L10.5245 11.2007L11.698 15.6738C11.7619 15.917 11.9527 16.0956 12.1854 16.1301C12.2119 16.1338 12.239 16.1359 12.2655 16.1359C12.4691 16.1359 12.6604 16.022 12.7686 15.8312L14.1723 13.2168H15.153C15.3389 13.2168 15.5096 13.1155 15.6084 12.947L16.328 11.7249L16.959 12.9232C17.0549 13.1044 17.2344 13.2168 17.4277 13.2168H21.1517C21.3253 13.5295 21.6421 13.7393 22.005 13.7393C22.5544 13.7393 23 13.2592 23 12.6672C23 12.0752 22.5544 11.595 22.005 11.595L22.0036 11.5945Z" fill="#FDFDFD"/>
</svg>
