<svg width="18" height="20" viewBox="0 0 18 20" fill="none" xmlns="http://www.w3.org/2000/svg">
<path d="M4.45189 4.62351C4.45189 4.62351 4.17176 4.47643 3.98971 3.64309C3.80766 2.80974 5.40431 1.2691 5.40431 1.2691C5.40431 1.2691 5.8945 1.031 7.92537 1.06602C9.95625 1.10103 10.4394 1.43016 10.8596 1.93437C12.6916 4.13277 16.1328 8.51013 16.9497 11.9617C17.1355 12.4759 17.3926 12.1951 17.3926 13.0255C17.3926 13.6205 17.0669 13.7844 16.9802 13.8814C14.8653 16.2484 9.68313 17.0327 7.37212 17.0327C5.06111 17.0327 5.07514 16.5005 4.4309 16.5005C3.78667 16.5005 3.07231 18.6294 1.47914 18.9375C0.292153 16.5565 0.341149 11.7385 1.47914 9.19291C4.15778 9.19291 4.58495 10.2223 5.69141 10.2223C6.63686 10.2223 6.48974 9.6341 7.98138 9.6341C9.47303 9.6341 11.5319 11.3358 11.5319 11.3358C10.3659 9.88618 11.6657 6.35422 9.14738 4.00375C8.6747 3.56256 8.45411 5.01217 6.98345 5.01217C6.76657 5.14009 5.9863 5.24267 5.9863 5.24267" stroke="#FCFCFF" stroke-width="0.770833" stroke-linecap="round" stroke-linejoin="round"/>
</svg>
