<svg width="20" height="20" viewBox="0 0 20 20" fill="none" xmlns="http://www.w3.org/2000/svg">
<path d="M10 1.79688C8.2393 1.79688 6.79688 3.2393 6.79688 5C6.79688 6.00828 7.27043 6.91156 8.00539 7.5H5L1.25 18.75H18.75L15 7.5H11.9946C12.7296 6.91156 13.2031 6.00828 13.2031 5C13.2031 3.2393 11.7607 1.79688 10 1.79688ZM10 3.20312C11.0007 3.20312 11.7969 3.9993 11.7969 5C11.7969 6.0007 11.0007 6.79688 10 6.79688C8.9993 6.79688 8.20312 6.0007 8.20312 5C8.20312 3.9993 8.9993 3.20312 10 3.20312ZM6.78848 11.1309H7.70645V12.4302L9.02961 11.1308H10.0954L8.38117 12.8164L10.2718 14.6904H9.12266L7.70645 13.2885V14.6904H6.78848V11.1309ZM11.4734 11.9605C11.6593 11.9605 11.8231 11.997 11.9645 12.0702C12.1059 12.1433 12.2355 12.2584 12.3532 12.4159V12.0202H13.2115V14.421C13.2115 14.8502 13.0755 15.1776 12.8038 15.4033C12.5336 15.6306 12.1409 15.7442 11.6259 15.7442C11.4591 15.7442 11.2978 15.7315 11.142 15.7061C10.9825 15.6797 10.8255 15.6407 10.6723 15.5893V14.924C10.8217 15.0099 10.968 15.0735 11.1109 15.1148C11.2541 15.1577 11.3979 15.1792 11.5426 15.1792C11.8223 15.1792 12.0273 15.118 12.1577 14.9956C12.288 14.8732 12.3532 14.6817 12.3532 14.4211V14.2375C12.2356 14.3932 12.106 14.5076 11.9645 14.5807C11.8231 14.6538 11.6593 14.6904 11.4734 14.6904C11.1475 14.6904 10.8782 14.5625 10.6652 14.3066C10.4522 14.0491 10.3457 13.7217 10.3457 13.3243C10.3457 12.9254 10.4522 12.5987 10.6652 12.3444C10.8782 12.0886 11.1475 11.9605 11.4734 11.9605ZM11.7905 12.5756C11.6141 12.5756 11.4765 12.6409 11.378 12.7711C11.2795 12.9015 11.2302 13.0859 11.2302 13.3243C11.2302 13.5691 11.2779 13.755 11.3732 13.8821C11.4686 14.0077 11.6077 14.0705 11.7905 14.0705C11.9685 14.0705 12.1068 14.0053 12.2054 13.875C12.3039 13.7446 12.3532 13.5611 12.3532 13.3243C12.3532 13.0859 12.3039 12.9015 12.2053 12.7712C12.1068 12.6408 11.9685 12.5756 11.7905 12.5756H11.7905Z" fill="#6739FF"/>
</svg>
